<svg width="328" height="291" viewBox="0 0 328 291" fill="none" xmlns="http://www.w3.org/2000/svg">
<path d="M29.9742 35.6343L31.5235 33.0808C44.5995 11.5624 68.2338 -1.44902 93.1592 0.128989C96.3671 0.327345 99.5558 0.763691 102.699 1.43443C125.358 6.28324 145.076 23.419 153.246 45.3677C158.051 58.2788 159.393 73.1336 168.516 83.3835C180.387 96.7177 200.543 97.1337 218.26 96.5814C235.977 96.0291 256.146 96.5025 267.953 109.887C275.355 118.272 277.708 130.193 277.105 141.447C275.527 171.171 254.819 197.746 228.481 210.959C202.143 224.171 171.099 225.347 142.3 219.566C101.917 211.425 63.5141 189.067 40.4464 154.538C17.3788 120.008 11.5042 72.9041 29.9742 35.6343Z" fill="#D6E0DB"/>
<path d="M176.597 58.7697C173.355 44.8168 182.038 30.8778 195.991 27.636C209.944 24.3942 223.883 33.0772 227.124 47.0301C230.366 60.9829 221.683 74.9219 207.73 78.1637C193.777 81.4055 179.838 72.7225 176.597 58.7697Z" fill="#FFFFF0"/>
<path d="M78.3405 143.563C78.6843 144.072 79.0863 144.539 79.5384 144.955C80.313 145.772 81.4033 146.877 82.6227 148.082C83.842 149.287 84.961 150.356 85.7859 151.116C86.2068 151.555 86.676 151.945 87.1846 152.278C86.8457 151.772 86.4484 151.307 86.001 150.894C85.2264 150.076 84.1289 148.971 82.9096 147.766C81.6902 146.561 80.5641 145.485 79.7392 144.725C79.3189 144.285 78.8496 143.896 78.3405 143.563Z" fill="white"/>
<path d="M78.4768 92.9522C78.9873 92.6133 79.4546 92.2135 79.8683 91.7615C80.6788 90.9869 81.7906 89.8966 82.9885 88.6772C84.1863 87.4578 85.2622 86.3389 86.0226 85.5068C86.4661 85.0903 86.8564 84.6205 87.1846 84.1082C86.679 84.4507 86.2145 84.8502 85.8002 85.2988C84.9825 86.0735 83.8779 87.1638 82.6729 88.3903C81.4679 89.6168 80.3919 90.7358 79.6388 91.5607C79.1959 91.9752 78.8057 92.4425 78.4768 92.9522Z" fill="white"/>
<path d="M276.626 221.782C276.69 221.861 277.214 221.545 277.795 221.065C278.376 220.584 278.806 220.154 278.742 220.075C278.677 219.996 278.153 220.312 277.572 220.792C276.991 221.273 276.561 221.703 276.626 221.782Z" fill="white"/>
<path d="M260.702 197.976C260.601 195.752 260.544 193.471 261.24 191.355C261.935 189.239 263.571 187.303 265.751 186.851C268.24 186.334 270.772 187.905 272.207 190.028C273.641 192.152 274.079 194.734 274.495 197.237C277.33 214.537 278.376 232.084 277.615 249.598L267.43 251.033C262.939 232.735 261.512 216.769 260.702 197.976Z" fill="#3C725A"/>
<path d="M267.165 186.772C267.165 186.772 267.165 186.83 267.215 186.937L267.38 187.396L268.097 189.154C268.241 189.541 268.427 189.95 268.578 190.423C268.728 190.897 268.893 191.42 269.073 191.966C269.252 192.511 269.439 193.113 269.647 193.737C269.855 194.361 269.984 195.05 270.17 195.76C271.021 199.078 271.677 202.443 272.136 205.838C272.688 209.661 273.047 213.907 273.333 218.361C273.85 227.277 273.936 235.375 274.165 241.235C274.273 244.162 274.373 246.529 274.481 248.164C274.538 248.961 274.581 249.599 274.61 250.051C274.61 250.244 274.61 250.402 274.653 250.539C274.646 250.593 274.646 250.649 274.653 250.703C274.661 250.646 274.661 250.588 274.653 250.531C274.653 250.402 274.653 250.244 274.653 250.044C274.653 249.585 274.653 248.953 274.596 248.157C274.531 246.522 274.467 244.155 274.395 241.228C274.23 235.368 274.187 227.27 273.678 218.34C273.398 213.871 273.025 209.625 272.451 205.788C271.969 202.377 271.277 198.999 270.378 195.674C270.192 194.957 270.005 194.29 269.826 193.651C269.647 193.013 269.417 192.439 269.231 191.887C269.044 191.334 268.865 190.818 268.707 190.345C268.549 189.871 268.341 189.462 268.191 189.082L267.473 187.346C267.387 187.167 267.323 187.016 267.272 186.894C267.242 186.85 267.206 186.809 267.165 186.772Z" fill="white"/>
<path d="M266.225 186.78C265.694 187.405 265.272 188.116 264.977 188.881C264.199 190.987 263.884 193.235 264.052 195.473C264.324 201.097 264.826 208.85 265.486 217.408C266.146 225.965 266.921 233.704 267.509 239.299C267.81 242.096 268.068 244.356 268.226 245.919C268.319 246.673 268.398 247.275 268.456 247.72C268.456 247.906 268.506 248.057 268.527 248.186C268.518 248.238 268.518 248.292 268.527 248.344C268.536 248.289 268.536 248.233 268.527 248.179C268.527 248.05 268.527 247.899 268.527 247.705C268.527 247.268 268.434 246.665 268.362 245.905C268.212 244.306 267.997 242.046 267.731 239.277C267.193 233.675 266.49 225.936 265.816 217.379C265.142 208.822 264.604 201.068 264.267 195.459C264.077 193.253 264.35 191.032 265.07 188.939C265.385 188.184 265.772 187.461 266.225 186.78Z" fill="white"/>
<path d="M259.167 213.125C259.835 213.079 260.489 212.911 261.097 212.63C261.744 212.458 262.355 212.174 262.904 211.791C262.236 211.832 261.581 212 260.975 212.285C260.327 212.456 259.715 212.74 259.167 213.125Z" fill="white"/>
<path d="M257.94 202.753C258.489 203.195 259.11 203.539 259.776 203.771C260.39 204.123 261.059 204.366 261.756 204.489C261.206 204.047 260.585 203.702 259.92 203.47C259.306 203.118 258.636 202.876 257.94 202.753Z" fill="white"/>
<path d="M258.571 194.282C259.578 194.458 260.611 194.386 261.584 194.074C261.093 193.929 260.574 193.902 260.071 193.995C259.555 193.972 259.042 194.071 258.571 194.282Z" fill="white"/>
<path d="M269.051 188.859C269.137 188.909 269.582 188.357 270.048 187.618C270.515 186.88 270.823 186.234 270.766 186.184C270.708 186.134 270.235 186.686 269.769 187.425C269.302 188.164 268.994 188.802 269.051 188.859Z" fill="white"/>
<path d="M272.552 193.974C273.01 194.142 273.502 194.196 273.986 194.132C274.783 194.132 275.421 194.017 275.421 193.916C274.963 193.747 274.47 193.696 273.986 193.766C273.498 193.719 273.006 193.79 272.552 193.974Z" fill="white"/>
<path d="M275.047 204.223C275.579 204.201 276.099 204.059 276.568 203.807C277.371 203.485 278.002 203.14 277.952 203.047C277.421 203.079 276.903 203.223 276.432 203.47C275.628 203.793 275.011 204.13 275.047 204.223Z" fill="white"/>
<path d="M275.313 212.838C275.313 212.938 275.873 213.146 276.604 213.297C277.336 213.447 277.96 213.498 277.974 213.397C277.989 213.297 277.415 213.096 276.683 212.938C276.242 212.792 275.771 212.758 275.313 212.838Z" fill="white"/>
<path d="M276.482 226.932C276.482 227.032 277.085 227.226 277.859 227.362C278.324 227.503 278.816 227.53 279.294 227.441C279.294 227.341 278.691 227.147 277.917 227.011C277.452 226.871 276.96 226.844 276.482 226.932Z" fill="white"/>
<path d="M277.264 234.715C277.214 234.801 277.73 235.167 278.411 235.526C279.093 235.885 279.681 236.107 279.724 236.021C279.767 235.935 279.258 235.569 278.584 235.203C277.909 234.837 277.314 234.629 277.264 234.715Z" fill="white"/>
<path d="M270.908 243.545C270.994 243.595 271.446 242.978 271.913 242.167C272.257 241.701 272.501 241.169 272.63 240.604C272.206 240.992 271.867 241.463 271.633 241.988C271.285 242.451 271.038 242.981 270.908 243.545Z" fill="white"/>
<path d="M269.051 228.869C268.98 228.941 269.475 229.543 270.163 230.218C270.852 230.892 271.461 231.373 271.533 231.301C271.605 231.229 271.103 230.627 270.414 229.959C269.726 229.292 269.145 228.797 269.051 228.869Z" fill="white"/>
<path d="M269.481 221.172C269.553 221.237 270.019 220.857 270.514 220.326C271.009 219.795 271.353 219.3 271.282 219.229C271.21 219.157 270.744 219.537 270.249 220.075C269.754 220.613 269.409 221.101 269.481 221.172Z" fill="white"/>
<path d="M268.226 211.332C268.147 211.397 268.563 211.985 269.151 212.637C269.74 213.29 270.278 213.771 270.349 213.706C270.421 213.642 270.012 213.053 269.424 212.401C268.836 211.748 268.298 211.267 268.226 211.332Z" fill="white"/>
<path d="M267.516 204.195C267.581 204.266 268.162 203.807 268.807 203.176C269.453 202.545 269.919 201.971 269.847 201.899C269.775 201.828 269.194 202.279 268.556 202.918C267.918 203.556 267.444 204.123 267.516 204.195Z" fill="white"/>
<path d="M266.118 194.54C266.226 195.061 266.449 195.551 266.77 195.975C267.215 196.692 267.645 197.288 267.731 197.237C267.626 196.716 267.403 196.225 267.079 195.803C266.634 195.05 266.182 194.49 266.118 194.54Z" fill="white"/>
<path d="M263.499 185.631C263.406 185.682 263.664 186.349 264.073 187.066C264.482 187.783 264.876 188.386 264.97 188.335C264.886 187.82 264.687 187.33 264.389 186.901C263.987 186.119 263.585 185.545 263.499 185.631Z" fill="white"/>
<path d="M260.522 189.656C260.479 189.749 260.888 190.036 261.433 190.294C261.978 190.552 262.452 190.696 262.495 190.603C262.538 190.509 262.136 190.23 261.591 189.964C261.046 189.699 260.565 189.57 260.522 189.656Z" fill="white"/>
<path d="M260.444 221.782C261.138 221.789 261.823 221.624 262.438 221.302C263.095 221.083 263.686 220.703 264.159 220.197C263.512 220.386 262.887 220.643 262.294 220.965C261.652 221.176 261.032 221.449 260.444 221.782Z" fill="white"/>
<path d="M261.663 228.582C261.663 228.682 262.259 228.883 263.033 229.034C263.808 229.185 264.468 229.228 264.468 229.127C264.468 229.027 263.872 228.826 263.098 228.675C262.634 228.531 262.142 228.499 261.663 228.582Z" fill="white"/>
<path d="M263.162 240.253C263.788 239.94 264.321 239.47 264.711 238.89C265.194 238.382 265.529 237.752 265.68 237.068C265.22 237.568 264.801 238.103 264.424 238.667C263.959 239.159 263.537 239.689 263.162 240.253Z" fill="white"/>
<path d="M279.523 245.589C279.595 245.51 279.179 245.051 278.605 244.557C278.031 244.062 277.508 243.732 277.443 243.839C277.379 243.947 277.787 244.377 278.368 244.872C278.949 245.367 279.459 245.661 279.523 245.589Z" fill="white"/>
<path d="M284.229 220.125C284.896 218.053 286.137 215.642 288.31 215.614C288.956 215.647 289.582 215.855 290.12 216.215C290.658 216.574 291.088 217.073 291.366 217.658C291.957 218.815 292.241 220.104 292.191 221.402C291.922 230.617 290.35 239.748 287.521 248.523H279.574C279.667 238.875 281.237 229.298 284.229 220.125Z" fill="#3C725A"/>
<path d="M298.61 207.1C299.722 202.652 303.035 200.257 306.88 200.034C310.395 200.644 311.757 204.109 312.173 207.652C312.589 211.195 311.492 214.717 310.409 218.117C306.923 229.029 303.435 239.939 299.944 250.846L290.053 249.763C293.187 235.124 294.98 221.603 298.61 207.1Z" fill="#3C725A"/>
<path d="M288.31 215.614C288.565 215.97 288.79 216.347 288.984 216.74C289.389 217.864 289.517 219.07 289.357 220.255C289.199 221.761 289.027 223.583 288.776 225.577C288.525 227.571 288.159 229.759 287.707 232.032C286.811 236.594 285.8 240.697 285.154 243.681C284.831 245.173 284.587 246.385 284.437 247.224C284.372 247.612 284.315 247.942 284.272 248.2C284.254 248.311 284.254 248.425 284.272 248.537C284.272 248.537 284.322 248.429 284.379 248.214C284.437 247.999 284.516 247.633 284.609 247.253C284.824 246.371 285.104 245.18 285.448 243.738C286.165 240.769 287.205 236.68 288.109 232.097C288.554 229.809 288.905 227.614 289.149 225.605C289.278 224.601 289.364 223.64 289.443 222.736C289.522 221.833 289.615 221.015 289.651 220.247C289.796 219.029 289.625 217.794 289.156 216.661C288.954 216.254 288.665 215.897 288.31 215.614Z" fill="white"/>
<path d="M306.737 199.748C307.18 200.249 307.58 200.787 307.934 201.355C308.848 202.934 309.365 204.711 309.441 206.533C309.483 209.237 309.068 211.929 308.214 214.495C307.346 217.436 306.392 220.664 305.395 224.056L300.331 241.458C299.707 243.66 299.205 245.453 298.839 246.737C298.672 247.339 298.543 247.817 298.452 248.171C298.402 248.338 298.364 248.508 298.337 248.681C298.418 248.526 298.481 248.362 298.524 248.193L298.976 246.758C299.363 245.481 299.908 243.695 300.582 241.508C301.909 237.025 303.731 230.906 305.747 224.135L308.501 214.581C309.352 211.979 309.745 209.248 309.663 206.512C309.56 204.659 308.996 202.862 308.021 201.283C307.679 200.705 307.245 200.186 306.737 199.748Z" fill="white"/>
<path d="M292.212 248.709C292.302 248.559 292.377 248.4 292.434 248.235C292.563 247.92 292.772 247.454 293.001 246.844C293.467 245.625 294.077 243.839 294.701 241.593C295.325 239.348 295.942 236.637 296.544 233.617C297.147 230.598 297.742 227.269 298.402 223.776C299.062 220.283 299.837 217.005 300.748 214.064C301.508 211.453 302.468 208.904 303.617 206.44C304.396 204.783 305.285 203.18 306.278 201.641C306.622 201.082 306.931 200.687 307.117 200.393C307.224 200.255 307.315 200.106 307.39 199.948C307.267 200.073 307.154 200.207 307.053 200.35C306.852 200.63 306.522 201.017 306.163 201.562C305.117 203.08 304.186 204.674 303.38 206.332C302.192 208.795 301.2 211.346 300.411 213.964C299.453 217.168 298.66 220.419 298.036 223.705C297.384 227.198 296.76 230.519 296.2 233.553C295.641 236.587 295.031 239.291 294.436 241.522C293.84 243.752 293.281 245.567 292.85 246.794C292.65 247.411 292.463 247.884 292.348 248.228C292.288 248.384 292.242 248.545 292.212 248.709Z" fill="white"/>
<path d="M310.23 216.475C310.23 216.575 310.747 216.79 311.435 216.955C312.124 217.12 312.698 217.178 312.719 217.077C312.741 216.977 312.203 216.769 311.521 216.604C310.84 216.439 310.252 216.389 310.23 216.475Z" fill="white"/>
<path d="M311.277 209.732C311.82 209.887 312.385 209.948 312.949 209.912C313.506 209.991 314.074 209.977 314.627 209.868C314.107 209.625 313.535 209.517 312.963 209.553C312.395 209.467 311.814 209.529 311.277 209.732Z" fill="white"/>
<path d="M310.165 203.564C310.23 203.635 310.768 203.291 311.363 202.782C311.959 202.273 312.396 201.806 312.332 201.727C312.267 201.648 311.729 202 311.127 202.502C310.524 203.004 310.101 203.492 310.165 203.564Z" fill="white"/>
<path d="M307.145 197.861C307.045 197.861 307.074 198.364 307.088 198.945C307.102 199.526 307.088 200.013 307.21 200.028C307.332 200.042 307.475 199.561 307.454 198.937C307.432 198.313 307.246 197.826 307.145 197.861Z" fill="white"/>
<path d="M300.985 200.551C300.898 200.608 301.142 201.096 301.522 201.641C301.903 202.187 302.24 202.574 302.362 202.516C302.484 202.459 302.204 201.971 301.824 201.433C301.444 200.895 301.063 200.494 300.985 200.551Z" fill="white"/>
<path d="M296.982 207.502C296.982 207.595 297.455 207.889 298.13 208.162C298.804 208.434 299.371 208.585 299.406 208.492C299.442 208.398 298.933 208.104 298.266 207.825C297.599 207.545 297.025 207.409 296.982 207.502Z" fill="white"/>
<path d="M294.557 214.653C294.997 215.04 295.541 215.289 296.121 215.37C296.674 215.555 297.269 215.577 297.835 215.435C297.314 215.222 296.766 215.082 296.207 215.019C295.675 214.827 295.12 214.704 294.557 214.653Z" fill="white"/>
<path d="M305.697 212.623C305.797 212.623 305.697 212.1 305.546 211.519C305.396 210.938 305.137 210.493 305.044 210.522C304.951 210.55 305.044 211.045 305.195 211.626C305.345 212.207 305.632 212.652 305.697 212.623Z" fill="white"/>
<path d="M304.147 221.596C304.106 221.074 303.951 220.568 303.696 220.111C303.358 219.33 302.978 218.734 302.914 218.77C302.946 219.294 303.101 219.802 303.366 220.255C303.703 221.037 304.054 221.639 304.147 221.596Z" fill="white"/>
<path d="M307.985 224.056C308.479 224.051 308.968 223.943 309.419 223.74C310.179 223.504 310.796 223.288 310.768 223.188C310.279 223.126 309.784 223.198 309.333 223.396C308.501 223.647 307.949 223.963 307.985 224.056Z" fill="white"/>
<path d="M305.769 231.38C305.711 231.459 306.134 231.86 306.715 232.276C307.296 232.692 307.813 232.994 307.877 232.879C307.942 232.764 307.512 232.391 306.931 231.982C306.35 231.574 305.826 231.294 305.769 231.38Z" fill="white"/>
<path d="M303.997 238.71C303.997 238.81 304.492 239.018 305.166 239.183C305.84 239.348 306.4 239.398 306.421 239.298C306.443 239.197 305.919 238.989 305.252 238.824C304.585 238.659 304.018 238.573 303.997 238.71Z" fill="white"/>
<path d="M294.357 220.778C294.307 220.865 294.758 221.223 295.411 221.496C296.064 221.768 296.638 221.768 296.652 221.668C296.666 221.567 296.157 221.388 295.54 221.151C294.923 220.915 294.414 220.664 294.357 220.778Z" fill="white"/>
<path d="M292.987 232.104C292.987 232.19 293.56 232.032 294.177 231.745C294.794 231.459 295.253 231.143 295.21 231.028C295.167 230.913 294.636 231.093 294.019 231.387C293.403 231.681 292.943 232.011 292.987 232.104Z" fill="white"/>
<path d="M290.57 240.223C291.118 240.205 291.655 240.062 292.141 239.807C292.667 239.659 293.157 239.399 293.575 239.047C293.028 239.069 292.491 239.211 292.004 239.463C291.477 239.611 290.988 239.87 290.57 240.223Z" fill="white"/>
<path d="M303.603 246.601C303.653 246.507 303.007 246.07 302.261 245.482C301.515 244.894 300.927 244.363 300.827 244.435C300.726 244.506 301.229 245.152 302.01 245.769C302.455 246.187 303.006 246.475 303.603 246.601Z" fill="white"/>
<path d="M297.183 242.462C297.283 242.462 297.427 241.931 297.671 241.292C297.914 240.654 298.18 240.159 298.094 240.095C298.008 240.03 297.599 240.475 297.333 241.163C297.068 241.852 297.082 242.454 297.183 242.462Z" fill="white"/>
<path d="M298.883 232.692C298.94 232.771 299.356 232.57 299.808 232.247C300.26 231.925 300.583 231.595 300.526 231.53C300.468 231.465 300.052 231.652 299.6 231.975C299.148 232.298 298.826 232.606 298.883 232.692Z" fill="white"/>
<path d="M283.914 217.378C283.849 217.457 284.258 217.859 284.81 218.268C285.362 218.676 285.872 218.949 285.929 218.87C285.986 218.791 285.585 218.39 285.033 217.973C284.48 217.557 283.971 217.299 283.914 217.378Z" fill="white"/>
<path d="M281.654 223.547C281.654 223.647 282.278 223.776 283.088 223.69C283.899 223.604 284.458 223.346 284.43 223.253C284.401 223.159 283.791 223.253 283.052 223.332C282.314 223.41 281.661 223.446 281.654 223.547Z" fill="white"/>
<path d="M291.352 224.931C291.352 225.025 291.918 225.24 292.679 225.283C293.137 225.372 293.612 225.311 294.034 225.111C294.034 225.003 293.424 224.974 292.7 224.924C291.976 224.874 291.373 224.831 291.352 224.931Z" fill="white"/>
<path d="M290.519 219.1C290.519 219.193 291.121 219.208 291.767 218.907C292.412 218.605 292.793 218.153 292.721 218.089C292.649 218.024 292.204 218.311 291.616 218.577C291.028 218.842 290.504 218.993 290.519 219.1Z" fill="white"/>
<path d="M280.822 230.167C280.872 230.253 281.482 229.966 282.178 229.529C282.873 229.091 283.397 228.668 283.333 228.589C283.268 228.51 282.673 228.79 281.984 229.228C281.295 229.665 280.765 230.103 280.822 230.167Z" fill="white"/>
<path d="M257.145 247.482H308.903V256.656H257.145V247.482Z" fill="#FFFFF0"/>
<path d="M305.037 254.834L298.747 282.249H267.904L261.018 254.834H305.037Z" fill="#FFFFF0"/>
<path d="M257.18 256.642C257.18 256.743 268.85 256.822 283.253 256.822C297.656 256.822 309.326 256.743 309.326 256.642C309.326 256.542 297.656 256.456 283.253 256.456C268.85 256.456 257.18 256.571 257.18 256.642Z" fill="#3C725A"/>
<path d="M285.964 225.132C286.043 225.182 286.402 224.773 286.753 224.206C287.105 223.64 287.32 223.152 287.234 223.095C287.148 223.037 286.796 223.453 286.445 224.02C286.094 224.587 285.878 225.082 285.964 225.132Z" fill="white"/>
<path d="M285.943 232.513C285.968 232.034 285.875 231.556 285.671 231.121C285.427 230.404 285.154 229.809 285.054 229.837C285.029 230.319 285.123 230.799 285.326 231.236C285.549 231.968 285.85 232.542 285.943 232.513Z" fill="white"/>
<path d="M283.396 240.259C283.482 240.302 283.87 239.686 284.257 238.875C284.544 238.405 284.727 237.879 284.795 237.333C284.702 237.29 284.314 237.914 283.927 238.717C283.641 239.187 283.46 239.713 283.396 240.259Z" fill="white"/>
<path d="M288.884 246.493C288.956 246.428 288.647 245.948 288.167 245.424C287.686 244.9 287.277 244.52 287.199 244.585C287.12 244.649 287.435 245.13 287.916 245.661C288.396 246.191 288.805 246.557 288.884 246.493Z" fill="white"/>
<path d="M290.032 235.175C290.032 235.275 290.548 235.268 291.143 235.175C291.739 235.081 292.212 234.909 292.191 234.809C292.169 234.708 291.674 234.715 291.079 234.809C290.484 234.902 290.01 235.074 290.032 235.175Z" fill="white"/>
<path d="M190.303 36.5627L198.566 36.6074L198.344 77.7212L190.081 77.6765L190.303 36.5627Z" fill="white"/>
<path d="M248.746 36.6711L270.142 36.7869L270.019 59.4884L248.623 59.3726L248.746 36.6711Z" fill="#3C725A"/>
<path d="M227.274 35.3693L248.671 35.5833L248.444 58.2851L227.047 58.0712L227.274 35.3693Z" fill="#FFAF90"/>
<path d="M270.133 43.0701C255.916 43.1849 241.657 43.0701 227.44 42.8693C227.387 42.8598 227.339 42.832 227.305 42.7906C227.27 42.7493 227.251 42.6972 227.251 42.6433C227.251 42.5895 227.27 42.5373 227.305 42.496C227.339 42.4547 227.387 42.4269 227.44 42.4174C241.662 42.3409 255.892 42.4269 270.133 42.6756C270.179 42.6844 270.22 42.7089 270.25 42.7449C270.28 42.7809 270.296 42.8261 270.296 42.8729C270.296 42.9196 270.28 42.9648 270.25 43.0008C270.22 43.0368 270.179 43.0613 270.133 43.0701Z" fill="white"/>
<path d="M244.607 58.9918L283.483 59.2021L283.383 77.7005L244.507 77.4901L244.607 58.9918Z" fill="#3C725A"/>
<path d="M205.919 58.7826L244.795 58.9929L244.695 77.4913L205.819 77.2809L205.919 58.7826Z" fill="#FFAF90"/>
<path d="M283.46 64.3591C257.638 64.646 231.716 64.3591 205.894 63.9718C205.84 63.9623 205.792 63.9345 205.758 63.8931C205.723 63.8518 205.704 63.7997 205.704 63.7458C205.704 63.692 205.723 63.6398 205.758 63.5985C205.792 63.5572 205.84 63.5294 205.894 63.5199C231.716 63.3836 257.638 63.3979 283.46 63.9646C283.506 63.9734 283.547 63.9979 283.577 64.0339C283.607 64.0699 283.623 64.1151 283.623 64.1618C283.623 64.2086 283.607 64.2538 283.577 64.2898C283.547 64.3258 283.506 64.3503 283.46 64.3591Z" fill="white"/>
<path d="M147.386 77.7075H298V84.3352H147.386V77.7075Z" fill="white"/>
<path d="M267.228 80.8921H273.339V103.501H267.228V80.8921Z" fill="white"/>
<path d="M175.954 80.8921H182.065V103.501H175.954V80.8921Z" fill="white"/>
<path d="M182.238 21.2268L190.501 21.2715L190.195 77.8209L181.932 77.7762L182.238 21.2268Z" fill="#3C725A"/>
<path d="M169.327 31.7508L182.166 31.8203L181.918 77.6466L169.079 77.5771L169.327 31.7508Z" fill="#FFAF90"/>
<path d="M169.413 40.6025C169.413 40.7244 172.282 40.8248 175.833 40.8248C179.383 40.8248 182.288 40.7244 182.288 40.6025C182.288 40.4805 179.419 40.3801 175.833 40.3801C172.246 40.3801 169.413 40.4734 169.413 40.6025Z" fill="white"/>
<path d="M169.413 38.6589C169.413 38.7808 172.282 38.8812 175.833 38.8812C179.383 38.8812 182.288 38.7808 182.288 38.6589C182.288 38.5369 179.419 38.4365 175.833 38.4365C172.246 38.4365 169.413 38.5513 169.413 38.6589Z" fill="white"/>
<path d="M169.413 70.6996C169.413 70.8216 172.282 70.922 175.833 70.922C179.383 70.922 182.288 70.8216 182.288 70.6996C182.288 70.5777 179.419 70.4773 175.833 70.4773C172.246 70.4773 169.413 70.5777 169.413 70.6996Z" fill="white"/>
<path d="M169.413 68.7844C169.413 68.9063 172.282 69.0067 175.833 69.0067C179.383 69.0067 182.288 68.9063 182.288 68.7844C182.288 68.6624 179.419 68.562 175.833 68.562C172.246 68.562 169.413 68.6553 169.413 68.7844Z" fill="white"/>
<path d="M175.624 64.5743C175.746 64.5743 175.847 59.955 175.847 54.2526C175.847 48.5503 175.746 43.9238 175.624 43.9238C175.502 43.9238 175.402 48.5503 175.402 54.2526C175.402 59.955 175.502 64.5743 175.624 64.5743Z" fill="white"/>
<path d="M155.304 43.0269H169.276V77.614H155.304V43.0269Z" fill="#3C725A"/>
<path d="M184.117 30.8979C184.117 31.3674 184.256 31.8265 184.517 32.2169C184.778 32.6073 185.149 32.9116 185.582 33.0913C186.016 33.271 186.494 33.3181 186.954 33.2264C187.415 33.1348 187.838 32.9087 188.17 32.5767C188.502 32.2446 188.728 31.8216 188.82 31.3611C188.911 30.9005 188.864 30.4231 188.684 29.9893C188.505 29.5555 188.201 29.1847 187.81 28.9238C187.42 28.6629 186.961 28.5237 186.491 28.5237C185.861 28.5237 185.257 28.7738 184.812 29.2191C184.367 29.6643 184.117 30.2682 184.117 30.8979Z" fill="white"/>
<path d="M185.752 37.4321H187.223V71.0725H185.752V37.4321Z" fill="white"/>
<path d="M74.668 83.7778C79.4379 73.8076 84.3584 63.4286 94.4649 58.9456C103.467 54.9575 112.44 55.4812 121.872 58.2929C126.52 59.6772 131.276 63.1847 134.783 66.5344C139.589 71.125 140.335 78.1687 141.561 84.7031C144.022 97.7862 139.316 113.48 134.532 116.981L78.4993 117.5C70.9751 110.801 72.3917 97.5778 72.4993 87.5C72.5926 80.6643 71.6769 89.9679 74.668 83.7778Z" fill="#263238"/>
<path d="M93.0449 68.8872L126.162 67.5889C136.455 68.6576 140.507 82.4652 139.022 92.6936C137.358 104.062 134.877 117.884 131.771 125.975C125.538 142.25 112.175 141.662 112.175 141.662C112.175 141.662 112.081 141.906 110.927 146.891L108.56 158.16C101.437 170.899 87.9809 166.229 72.2581 155.369L86.4746 73.779C86.7592 72.2895 87.5919 70.9608 88.8083 70.0552C90.0246 69.1495 91.5363 68.7328 93.0449 68.8872Z" fill="#FAAF88"/>
<path d="M133.691 111.774C133.567 112.384 133.209 112.922 132.695 113.273C132.18 113.623 131.549 113.759 130.936 113.652C130.331 113.562 129.785 113.237 129.418 112.747C129.05 112.258 128.891 111.643 128.973 111.037C129.097 110.426 129.454 109.888 129.968 109.536C130.482 109.184 131.113 109.046 131.727 109.151C132.334 109.241 132.881 109.568 133.249 110.059C133.616 110.55 133.775 111.166 133.691 111.774Z" fill="#263238"/>
<path d="M135.608 107.343C135.258 107.583 133.761 105.899 131.246 105.379C128.732 104.86 126.59 105.721 126.412 105.379C126.311 105.217 126.722 104.728 127.646 104.309C128.894 103.785 130.274 103.661 131.596 103.952C132.905 104.222 134.093 104.905 134.987 105.899C135.662 106.567 135.778 107.195 135.608 107.343Z" fill="#263238"/>
<path d="M110.255 106.109C110.131 106.72 109.774 107.258 109.26 107.61C108.746 107.962 108.115 108.1 107.501 107.995C106.895 107.905 106.35 107.579 105.983 107.09C105.615 106.601 105.455 105.986 105.537 105.38C105.66 104.77 106.015 104.231 106.528 103.879C107.041 103.527 107.671 103.389 108.284 103.494C108.891 103.583 109.438 103.907 109.807 104.396C110.176 104.886 110.337 105.502 110.255 106.109Z" fill="#263238"/>
<path d="M111.21 101.438C110.853 101.686 109.363 99.9944 106.849 99.4745C104.334 98.9546 102.193 99.8159 102.014 99.4745C101.913 99.3115 102.317 98.8227 103.248 98.4036C104.497 97.8837 105.876 97.7592 107.198 98.0467C108.506 98.3209 109.693 99.0028 110.589 99.9944C111.233 100.724 111.381 101.329 111.21 101.438Z" fill="#263238"/>
<path d="M116.386 121.241C116.386 121.094 118.023 121.156 120.63 121.365C121.282 121.435 121.919 121.435 122.12 121.024C122.32 120.374 122.32 119.679 122.12 119.03C121.841 117.343 121.551 115.579 121.251 113.737C120.087 106.226 119.389 100.095 119.699 100.049C120.01 100.002 121.197 106.063 122.361 113.582C122.635 115.429 122.894 117.196 123.137 118.882C123.377 119.743 123.305 120.661 122.935 121.474C122.795 121.68 122.61 121.852 122.393 121.975C122.177 122.099 121.935 122.172 121.686 122.188C121.309 122.209 120.931 122.183 120.561 122.11C117.953 121.707 116.37 121.389 116.386 121.241Z" fill="#263238"/>
<path d="M108.706 125.854C109.121 125.666 110.152 128.402 113.275 129.419C116.399 130.436 119.262 128.978 119.431 129.352C119.531 129.51 118.949 130.15 117.722 130.663C116.09 131.32 114.292 131.395 112.639 130.876C111.056 130.371 109.748 129.272 108.993 127.811C108.457 126.706 108.513 125.909 108.706 125.854Z" fill="#263238"/>
<path d="M114.019 93.7708C113.67 94.4226 111.179 93.7165 108.145 93.6234C105.111 93.5302 102.573 93.9726 102.271 93.2897C102.139 92.9715 102.659 92.3818 103.73 91.8618C105.152 91.2371 106.697 90.9452 108.249 91.0085C109.801 91.0717 111.318 91.4883 112.685 92.2266C113.709 92.8318 114.182 93.4604 114.019 93.7708Z" fill="#263238"/>
<path d="M136.825 101.795C136.135 102.144 134.536 100.825 132.356 99.8934C130.175 98.9622 128.142 98.582 127.948 97.8371C127.87 97.4879 128.39 97.0611 129.415 96.8903C130.787 96.7195 132.18 96.9373 133.434 97.5189C134.69 98.062 135.766 98.9499 136.538 100.08C137.113 100.957 137.144 101.616 136.825 101.795Z" fill="#263238"/>
<path d="M139.515 63.8749C139.973 94.6206 121.033 80.4962 110.99 89.5284C107.04 93.0814 101.58 95.3784 96.4302 94.2497L97.2193 90.7809C96.145 93.2003 94.5836 95.5339 92.2575 96.7963C89.9314 98.0588 86.7289 97.9818 84.9014 96.0632C87.7271 87.7256 83.6429 77.7993 87.9344 70.1162C90.9064 64.7953 97.1356 62.1674 103.122 61.0641C111.599 59.5096 131.338 60.241 139.439 63.1832" fill="#263238"/>
<path d="M233.436 270.894L226.676 263.877L215.557 260.719L213.822 265.594L224.943 267.781C224.943 267.781 230.959 273.879 233.436 270.894Z" fill="#FAAF88"/>
<path d="M209.026 262.1C209.026 262.1 209.066 262.076 209.088 262.063L215.557 260.719L222.533 265.503C222.42 266.017 222.228 266.511 221.965 266.967C223.462 267.151 224.914 267.601 226.252 268.298L227.854 269.141C228.312 269.515 228.632 270.031 228.764 270.607C228.896 271.183 228.833 271.787 228.584 272.323C228.336 272.859 227.915 273.297 227.39 273.568C226.865 273.839 226.264 273.928 225.683 273.82C225.732 274.205 225.675 274.596 225.519 274.952C225.364 275.307 225.115 275.614 224.799 275.839C224.483 276.065 224.112 276.2 223.725 276.232C223.338 276.263 222.95 276.189 222.601 276.018C222.561 276.429 222.432 276.827 222.221 277.183C222.011 277.539 221.726 277.845 221.385 278.079C221.044 278.314 220.657 278.471 220.249 278.539C219.841 278.608 219.423 278.586 219.025 278.477C218.945 278.844 218.761 279.181 218.496 279.447C218.231 279.714 217.895 279.899 217.529 279.981C216.776 280.14 215.997 280.119 215.255 279.918C213.991 279.665 212.76 279.269 211.586 278.737C211.172 278.57 210.797 278.321 210.483 278.005C210.268 277.613 210.217 277.152 210.339 276.722C210.462 276.292 210.75 275.928 211.139 275.709L205.882 273.396L196.338 274.245L196.532 261.909L209.026 262.1Z" fill="#FAAF88"/>
<path d="M207.223 264.382C207.302 264.456 207.393 264.517 207.491 264.563C207.755 264.727 208.032 264.867 208.32 264.982C209.392 265.399 210.545 265.563 211.69 265.463C213.411 265.337 215.04 264.639 216.318 263.481C216.667 263.139 216.996 262.778 217.304 262.4C217.438 262.213 217.612 262.059 217.814 261.948C218.015 261.837 218.239 261.773 218.469 261.76C218.962 261.851 219.432 262.037 219.853 262.31C220.354 262.56 220.885 262.744 221.434 262.855C221.98 262.963 222.538 262.997 223.092 262.956C223.637 262.917 224.151 262.813 224.644 262.826C225.12 262.822 225.582 262.986 225.949 263.29C226.313 263.584 226.644 263.957 226.993 264.276C228.172 265.497 229.562 267.495 231.097 268.222C232.999 269.5 232.999 269 231.207 268.032C229.717 267.286 228.368 265.289 227.219 264.084C226.872 263.757 226.563 263.393 226.156 263.065C225.734 262.717 225.205 262.525 224.658 262.523C224.119 262.508 223.594 262.618 223.083 262.652C222.558 262.686 222.03 262.652 221.513 262.551C220.996 262.453 220.494 262.287 220.021 262.056C219.561 261.76 219.046 261.561 218.506 261.473C218.229 261.485 217.959 261.559 217.714 261.689C217.469 261.819 217.256 262.001 217.09 262.224C216.791 262.6 216.47 262.959 216.129 263.297C214.91 264.425 213.354 265.122 211.701 265.28C210.585 265.396 209.457 265.269 208.395 264.909C207.613 264.595 207.24 264.349 207.223 264.382Z" fill="#875149"/>
<path d="M221.56 262.781C221.353 262.715 221.138 262.677 220.92 262.671C220.327 262.599 219.728 262.592 219.133 262.652C218.695 262.682 218.274 262.835 217.919 263.093C217.538 263.405 217.233 263.799 217.025 264.245C216.753 264.741 216.683 265.323 216.831 265.87C217.085 266.405 217.495 266.85 218.008 267.146C219.629 268.265 221.432 269.093 223.337 269.593C223.912 269.744 224.496 269.861 225.084 269.944C225.3 269.988 225.52 270 225.739 269.98C225.716 269.941 224.814 269.786 223.399 269.372C221.547 268.811 219.791 267.969 218.195 266.874C217.738 266.612 217.37 266.221 217.136 265.749C217.016 265.284 217.076 264.791 217.304 264.368C217.486 263.962 217.753 263.599 218.087 263.304C218.401 263.076 218.769 262.934 219.155 262.89C219.735 262.815 220.32 262.787 220.904 262.806C221.123 262.828 221.344 262.82 221.56 262.781Z" fill="#875149"/>
<path d="M217.963 266.707C217.747 266.571 217.515 266.459 217.274 266.375C216.628 266.091 215.946 265.896 215.247 265.798C214.754 265.732 214.253 265.754 213.767 265.864C213.198 265.998 212.683 266.301 212.288 266.733C212.062 266.97 211.887 267.251 211.773 267.558C211.66 267.866 211.611 268.193 211.629 268.521C211.681 268.868 211.805 269.201 211.992 269.498C212.18 269.795 212.427 270.05 212.717 270.247C214.666 271.52 216.855 272.381 219.149 272.776C219.841 272.906 220.541 272.987 221.244 273.018C221.501 273.043 221.76 273.037 222.015 273C222.017 272.94 220.915 272.91 219.205 272.558C216.969 272.103 214.838 271.233 212.922 269.994C212.667 269.826 212.449 269.607 212.283 269.351C212.117 269.094 212.006 268.806 211.958 268.504C211.944 268.22 211.986 267.936 212.082 267.669C212.178 267.402 212.325 267.156 212.516 266.945C212.875 266.557 213.34 266.284 213.853 266.16C214.317 266.047 214.796 266.014 215.271 266.064C215.954 266.145 216.626 266.304 217.274 266.537C217.497 266.618 217.728 266.674 217.963 266.707Z" fill="#875149"/>
<path d="M212.071 267.93C211.878 267.857 211.674 267.82 211.468 267.82C210.902 267.762 210.33 267.845 209.804 268.061C209.438 268.228 209.12 268.484 208.877 268.804C208.584 269.184 208.453 269.663 208.512 270.139C208.599 270.65 208.851 271.118 209.229 271.472C209.61 271.84 210.03 272.167 210.48 272.447C211.999 273.457 213.614 274.315 215.302 275.008C215.949 275.269 216.485 275.455 216.855 275.569C217.224 275.684 217.438 275.735 217.448 275.714C217.458 275.693 216.656 275.369 215.395 274.791C213.751 274.044 212.169 273.167 210.663 272.169C210.233 271.903 209.831 271.593 209.464 271.245C209.126 270.946 208.891 270.547 208.795 270.106C208.741 269.707 208.845 269.303 209.083 268.978C209.292 268.685 209.569 268.446 209.89 268.283C210.377 268.058 210.907 267.945 211.443 267.953C211.652 267.963 211.862 267.956 212.071 267.93Z" fill="#875149"/>
<path d="M210.36 272.03C210.052 271.999 209.74 272.004 209.433 272.045C209.094 272.06 208.757 272.099 208.424 272.158C207.998 272.235 207.601 272.427 207.277 272.715C206.941 273.006 206.711 273.4 206.623 273.835C206.566 274.198 206.631 274.57 206.809 274.891C207.131 275.439 207.56 275.518 207.552 275.479C207.337 275.281 207.157 275.047 207.021 274.788C206.9 274.507 206.866 274.196 206.924 273.895C207.007 273.527 207.204 273.195 207.486 272.945C208.064 272.527 208.751 272.285 209.464 272.247C209.775 272.244 210.082 272.17 210.36 272.03Z" fill="#875149"/>
<path d="M112.175 141.676C104.222 140.127 96.8553 136.403 90.8931 130.917C90.8931 130.917 93.9775 143.878 111.171 145.865L112.175 141.676Z" fill="#875149"/>
<path d="M126.183 65.688C126.183 65.8099 126.183 65.939 126.183 66.0681H126.118C126.132 65.9462 126.154 65.8458 126.183 65.688Z" fill="#263238"/>
<path d="M111.163 145.844L59.2468 148.512L92.6217 190.265L106.329 196.713L118.487 193.808L121.284 184.964L111.163 145.844Z" fill="#FAAF88"/>
<path d="M51.1626 156.079C51.512 156.151 51.8674 156.189 52.2241 156.194C53.1864 156.26 54.1443 156.38 55.0932 156.553C56.5016 156.808 57.8586 157.293 59.11 157.987C60.6462 158.832 62.0603 159.882 63.3133 161.107C64.5044 162.408 65.5263 163.854 66.3545 165.411C67.0472 166.663 67.6674 167.954 68.2123 169.277C68.6785 170.418 69.0156 171.357 69.2452 172.003C69.3476 172.348 69.4796 172.684 69.6396 173.007C69.5868 172.651 69.5028 172.301 69.3886 171.96C69.195 171.293 68.8937 170.339 68.4561 169.177C67.9454 167.819 67.3464 166.497 66.6629 165.218C65.8381 163.629 64.8057 162.158 63.593 160.842C62.3176 159.587 60.8682 158.521 59.2893 157.679C57.997 156.988 56.5981 156.517 55.1506 156.287C54.1824 156.136 53.2042 156.057 52.2241 156.051C51.8701 156.03 51.515 156.04 51.1626 156.079Z" fill="#263238"/>
<path d="M199.999 277.5C199.999 277.5 179.525 278.347 164.999 277.5C154.237 276.873 145.466 266.901 142.999 261.5C138.695 252.175 121.312 211.998 121.312 211.998L125.853 200.809L141.131 169.248L159.999 249.5L196.499 261.5L199.999 277.5Z" fill="#3C725A"/>
<path d="M31.258 229.191C31.258 229.191 32.9938 176.5 35.2102 169.22C37.4266 161.939 40.1379 157.93 45.6179 154.386C51.8583 150.355 58.5289 149.179 59.2462 148.512C59.2462 148.512 75.0023 146.971 84.499 159C93.9958 171.029 96.499 171.5 104.499 167.814C112.696 164.037 112.415 166.007 111.177 145.844L113.379 146.087C125.903 147.479 136.719 155.857 140.672 167.814C140.822 168.273 140.973 168.739 141.109 169.248C145.556 184.476 128.112 206.367 128.112 205.406C128.069 209.954 127.768 214.308 126.993 217.414C124.461 227.556 102.297 244.555 101.028 249.512C99.7581 254.468 98.7109 286.186 98.7109 286.186C98.7109 286.186 60.2863 286.258 44.7931 286.186C32.2048 286.122 4.55373 286.186 4.55373 286.186L31.258 229.191Z" fill="#3C725A"/>
<path d="M129.367 166.71C129.367 166.71 129.288 166.918 129.166 167.312C128.981 167.89 128.825 168.476 128.7 169.07C128.221 171.253 127.954 173.477 127.904 175.712C127.828 179.017 127.946 182.325 128.255 185.617C128.542 189.34 128.973 193.414 129.209 197.703C129.47 201.728 129.335 205.769 128.808 209.768C128.346 213.029 127.436 216.21 126.104 219.222C125.177 221.238 124.058 223.159 122.761 224.96C122.295 225.598 121.9 226.065 121.657 226.394C121.521 226.556 121.396 226.726 121.284 226.904C121.443 226.764 121.587 226.608 121.714 226.438C121.979 226.122 122.388 225.663 122.876 225.039C124.23 223.254 125.392 221.33 126.34 219.301C127.727 216.284 128.672 213.083 129.145 209.797C129.696 205.774 129.842 201.705 129.582 197.653C129.367 193.349 128.908 189.275 128.6 185.56C128.278 182.28 128.135 178.985 128.169 175.69C128.195 173.467 128.42 171.252 128.844 169.07C128.973 168.295 129.145 167.707 129.238 167.305C129.3 167.111 129.343 166.912 129.367 166.71Z" fill="#263238"/>
<g opacity="0.3">
<path opacity="0.3" d="M124.927 221.179C129.503 218.138 132 212.665 132.702 207.221C133.405 201.777 132.538 196.261 131.677 190.831C130.723 184.806 129.13 179.355 128.176 173.337C127.552 181.679 128.485 188.966 129.087 197.086C129.69 205.206 129.389 213.885 124.934 220.699" fill="#49362B"/>
</g>
<g opacity="0.3">
<path opacity="0.3" d="M81.8047 175.367C80.8521 176.797 79.6522 178.045 78.2613 179.054C76.8268 179.972 74.8829 180.331 73.3838 179.498C71.5906 178.509 70.9953 176.271 70.4286 174.298C67.8058 165.244 62.3912 157.249 54.9569 151.453C60.4369 153.669 65.9743 155.922 70.8088 159.343C75.6433 162.764 79.7604 167.498 81.2954 173.215" fill="#49362B"/>
</g>
<path d="M164.999 214.002C165.139 214.222 165.305 214.425 165.494 214.604C165.831 214.984 166.341 215.501 166.986 216.132C168.675 217.761 170.467 219.28 172.351 220.68C174.238 222.078 176.215 223.35 178.269 224.488C179.058 224.926 179.704 225.263 180.163 225.471C180.389 225.599 180.63 225.7 180.88 225.772C180.88 225.722 179.933 225.184 178.398 224.266C176.863 223.348 174.812 222.007 172.574 220.378C170.336 218.75 168.5 217.143 167.166 215.938C165.831 214.733 165.035 213.959 164.999 214.002Z" fill="white"/>
<g opacity="0.3">
<path opacity="0.3" d="M99.1123 275.599C90.2037 277.393 82.0626 280.398 73.0321 279.408C64.0015 278.418 54.8562 274.165 50.1939 266.361C46.7366 260.572 46.0983 253.572 45.5531 246.851C44.3529 232.223 43.1574 217.6 41.9667 202.982L60.4367 254.217L69.2951 267.731L99.1123 275.599Z" fill="#49362B"/>
</g>
<path d="M133.055 256.599L81.841 247.855C81.841 247.855 71.132 183.07 70.838 181.916C70.5439 180.761 66.9575 160.591 56.808 158.862C46.6585 157.134 37.4056 161.172 36.8103 170.97C36.3297 178.803 47.6986 235.08 54.8642 261.146C56.9299 268.642 65.1428 275.277 73.1763 275.427C94.1137 275.822 132.832 275.427 132.832 275.427L133.055 256.599Z" fill="#3C725A"/>
<path d="M70.8523 181.916C71.0532 183.157 75.156 207.917 81.7047 247.906V248.013H81.8123L133.004 256.786L132.854 256.606C132.789 262.596 132.718 268.951 132.646 275.435L132.825 275.248L113.459 275.385C102.621 275.435 92.0336 275.442 81.8123 275.385L74.2235 275.291C71.7524 275.339 69.2982 274.875 67.0149 273.929C62.5697 272.077 58.8692 268.796 56.4996 264.604L56.0835 263.836L55.7393 263.04C55.5083 262.513 55.3118 261.972 55.1511 261.419C54.814 260.322 54.5414 259.196 54.2401 258.091C53.6376 255.889 53.1069 253.694 52.5546 251.535C51.4786 247.231 50.4816 243.021 49.542 238.954C47.6627 230.813 46.0201 223.21 44.521 216.259C41.6519 202.351 39.5001 191.054 38.2377 183.214C37.9292 181.249 37.6495 179.506 37.4558 177.993C37.3482 177.275 37.255 176.558 37.1689 175.898C37.0828 175.238 37.0398 174.679 36.9824 174.155C36.8885 173.369 36.8359 172.579 36.8246 171.788C36.8246 171.25 36.7888 170.978 36.7888 170.978C36.7888 170.978 36.7888 171.25 36.7888 171.788C36.7803 172.581 36.821 173.374 36.9107 174.162C36.9609 174.686 37.0111 175.267 37.0757 175.905C37.1402 176.544 37.2478 177.247 37.3411 178.007C37.5276 179.527 37.793 181.27 38.0942 183.236C39.3064 191.126 41.408 202.394 44.2628 216.31C45.6973 223.267 47.3399 230.877 49.2049 239.019C50.1373 243.093 51.1272 247.296 52.2031 251.621C52.7482 253.773 53.279 255.968 53.8815 258.177C54.1828 259.282 54.4482 260.401 54.7853 261.52C54.952 262.084 55.1532 262.637 55.3878 263.177L55.7393 263.987L56.1625 264.769C58.5684 269.029 62.3306 272.362 66.8499 274.237C69.1709 275.203 71.667 275.677 74.1805 275.628L81.841 275.722C92.0622 275.808 102.642 275.801 113.495 275.722L132.861 275.585H133.04V275.399C133.105 268.943 133.177 262.567 133.241 256.57V256.42H133.091L81.841 247.705L81.9701 247.827C78.6204 227.815 75.8661 211.339 73.9438 199.848C72.9611 194.11 72.1936 189.634 71.6772 186.578L71.0532 183.1C70.9456 182.318 70.8523 181.916 70.8523 181.916Z" fill="#263238"/>
<g opacity="0.3">
<path opacity="0.3" d="M81.8404 247.855C87.5069 244.986 92.9008 241.55 97.1758 236.866C95.0239 236.866 92.9223 237.785 90.8135 238.358C88.7047 238.932 86.2588 239.112 84.5015 237.813C83.2677 236.902 82.6007 235.439 81.9838 234.048C80.2672 230.268 78.8102 226.376 77.6228 222.399C78.8565 230.533 80.1978 239.757 81.8404 247.855Z" fill="#49362B"/>
</g>
<g opacity="0.3">
<path opacity="0.3" d="M150.989 225C146.853 227.778 143.275 231.42 140.467 235.712C140.283 235.994 140.099 236.371 140.277 236.657C140.454 236.943 141.016 236.901 141.331 236.668C144.609 234.071 148.432 228.792 150.999 225.016" fill="#49362B"/>
</g>
<path d="M156.651 247.633C156.619 247.718 166.167 251.205 177.971 255.416C189.776 259.627 199.378 262.982 199.404 262.899C199.429 262.817 189.888 259.327 178.081 255.11C166.275 250.893 156.68 247.542 156.651 247.633Z" fill="#263238"/>
<path d="M186.154 258.5L175.395 250.48C174.323 249.714 173.014 249.353 171.701 249.462L163.094 250.179L143.01 258.894L133.205 257.582L133.054 274.667C133.054 274.667 141.769 275.141 145.248 274.567C148.727 273.993 153.482 270.93 153.482 270.93C153.482 270.93 152.335 272.652 152.908 273.993C153.482 275.334 158.08 277.443 158.08 277.443C158.08 277.443 161.336 278.591 161.91 276.295C161.91 276.295 167.649 277.056 168.23 272.458C168.23 272.458 177.016 270.973 175.761 266.928C174.836 263.929 173.889 261.735 173.889 261.735L171.299 255.996L174.169 255.487C174.169 255.487 179.433 259.418 181.729 259.791C184.024 260.164 186.154 258.5 186.154 258.5Z" fill="#FAAF88"/>
<path d="M164.45 259.181C164.407 259.238 165.246 259.661 166.308 260.687C167.688 262.019 168.646 263.728 169.062 265.6C169.197 266.642 169.18 267.698 169.012 268.735C168.868 269.703 168.675 270.571 168.502 271.288C168.274 272.061 168.095 272.846 167.964 273.641C168.078 273.456 168.162 273.256 168.216 273.046C168.359 272.651 168.553 272.077 168.761 271.36C169.002 270.515 169.198 269.658 169.349 268.792C169.546 267.718 169.573 266.619 169.428 265.536C169.004 263.595 167.977 261.837 166.494 260.515C166.053 260.118 165.572 259.767 165.06 259.468C164.875 259.337 164.668 259.24 164.45 259.181Z" fill="#875149"/>
<path d="M159.794 263.994C159.997 264.008 160.201 264.008 160.404 263.994C160.944 264.041 161.462 264.226 161.91 264.532C162.579 264.973 163.102 265.602 163.417 266.339C163.767 267.252 163.888 268.237 163.768 269.208C163.644 270.202 163.436 271.184 163.144 272.142C162.9 273.038 162.663 273.849 162.427 274.516C161.989 275.85 161.616 276.668 161.666 276.668C161.717 276.668 161.81 276.503 161.996 276.144C162.252 275.646 162.48 275.133 162.678 274.609C162.936 273.949 163.194 273.139 163.46 272.242C163.782 271.27 164.006 270.268 164.127 269.251C164.257 268.21 164.116 267.152 163.718 266.181C163.367 265.392 162.781 264.731 162.039 264.288C161.544 263.981 160.972 263.822 160.39 263.829C160.181 263.835 159.977 263.891 159.794 263.994Z" fill="#875149"/>
<path d="M156.388 271.174C156.424 271.174 156.352 270.944 156.101 270.715C155.768 270.437 155.362 270.26 154.932 270.205C154.712 270.164 154.487 270.167 154.268 270.216C154.05 270.264 153.844 270.355 153.662 270.485C153.39 270.715 153.361 270.944 153.397 270.959C153.433 270.973 153.562 270.829 153.806 270.707C154.142 270.554 154.518 270.508 154.882 270.578C155.414 270.688 155.924 270.89 156.388 271.174Z" fill="#875149"/>
<path d="M155.857 267.731C155.821 267.731 155.642 267.845 155.527 268.161C155.391 268.57 155.34 269.002 155.376 269.431C155.399 269.867 155.535 270.289 155.771 270.657C155.972 270.944 156.187 271.023 156.208 270.98C156.23 270.937 156.115 270.793 156 270.528C155.858 270.168 155.774 269.788 155.749 269.402C155.707 269.011 155.707 268.617 155.749 268.226C155.828 267.932 155.9 267.759 155.857 267.731Z" fill="#875149"/>
<path d="M175.732 266.934C175.701 266.687 175.633 266.445 175.532 266.217C175.374 265.78 175.137 265.141 174.814 264.367C174.219 262.81 173.38 260.665 172.411 258.306C172.06 257.466 171.694 256.649 171.414 255.896V255.86C170.803 255.176 170.021 254.666 169.148 254.382C168.471 254.149 167.754 254.054 167.039 254.102C166.572 254.13 166.113 254.23 165.676 254.396C165.375 254.518 165.224 254.604 165.231 254.626C165.824 254.463 166.432 254.362 167.046 254.325C167.815 254.309 168.579 254.459 169.285 254.763C169.992 255.068 170.625 255.52 171.142 256.089V256.039C171.45 256.799 171.78 257.617 172.117 258.463C173.078 260.823 173.968 262.946 174.628 264.481C174.958 265.242 175.23 265.866 175.431 266.289C175.501 266.517 175.602 266.734 175.732 266.934Z" fill="#875149"/>
<path d="M269.489 203.011L233.905 282.629H151.016C151.332 281.022 152.193 279.572 153.454 278.527C154.716 277.481 156.299 276.903 157.938 276.891L229.142 276.375L263.414 200.271C263.772 199.486 264.42 198.871 265.223 198.554C266.025 198.237 266.919 198.243 267.717 198.571C268.128 198.743 268.501 198.994 268.814 199.311C269.126 199.629 269.372 200.005 269.537 200.419C269.702 200.832 269.783 201.275 269.775 201.72C269.766 202.165 269.669 202.604 269.489 203.011Z" fill="white"/>
<path d="M269.488 203.012C269.548 202.876 269.601 202.737 269.646 202.595C269.784 202.18 269.831 201.74 269.782 201.304C269.715 200.584 269.412 199.906 268.922 199.375C268.586 199.007 268.174 198.718 267.714 198.529C267.254 198.339 266.757 198.253 266.26 198.277C265.63 198.314 265.021 198.526 264.503 198.888C263.985 199.25 263.578 199.749 263.327 200.329C262.76 201.563 262.15 202.918 261.491 204.382L256.943 214.423L228.969 276.332L229.12 276.231L191.821 276.49L171.601 276.633L161.186 276.712H158.554C157.653 276.673 156.751 276.782 155.886 277.035C154.126 277.569 152.632 278.744 151.697 280.327C151.446 280.76 151.24 281.216 151.08 281.69C150.999 281.925 150.932 282.164 150.879 282.407L150.836 282.586C151.209 283.038 150.951 282.708 151.037 282.809H193.65H233.904H234.004L234.047 282.716L259.776 224.975L266.949 208.771L268.835 204.468L269.309 203.37L269.467 202.997C269.467 202.997 269.402 203.112 269.287 203.356C269.173 203.6 269.008 203.973 268.785 204.446L266.856 208.707C265.177 212.444 262.717 217.909 259.583 224.867L233.761 282.551L233.904 282.464H193.65H151.03C151.109 282.565 150.836 282.249 151.195 282.687L151.238 282.515C151.286 282.272 151.351 282.032 151.431 281.797C151.578 281.347 151.772 280.914 152.012 280.506C152.896 279 154.315 277.884 155.986 277.379C156.817 277.136 157.682 277.031 158.547 277.071H161.179L171.594 276.992L191.814 276.841L229.113 276.554H229.22L229.263 276.454L257.094 214.495L261.598 204.453L263.413 200.393C263.626 199.889 263.962 199.446 264.39 199.105C264.818 198.764 265.325 198.535 265.865 198.441C266.404 198.346 266.958 198.387 267.477 198.562C267.996 198.736 268.463 199.038 268.835 199.439C269.225 199.856 269.499 200.366 269.633 200.921C269.766 201.475 269.753 202.055 269.596 202.603C269.553 202.737 269.517 202.874 269.488 203.012Z" fill="#263238"/>
<path d="M229.141 276.389C229.768 277.494 230.551 278.504 231.465 279.387C232.282 280.347 233.149 281.264 234.062 282.134C233.434 281.029 232.652 280.019 231.738 279.136C230.923 278.174 230.056 277.257 229.141 276.389Z" fill="#263238"/>
<path d="M225.297 278.719C225.297 278.719 225.218 278.648 225.046 278.64C224.802 278.649 224.568 278.743 224.386 278.906C224.243 279.028 224.131 279.182 224.059 279.355C223.987 279.528 223.956 279.716 223.97 279.903C224.018 280.131 224.131 280.341 224.296 280.506C224.462 280.671 224.671 280.784 224.9 280.831C225.128 280.878 225.366 280.857 225.583 280.772C225.8 280.686 225.987 280.538 226.122 280.347C226.207 280.181 226.251 279.997 226.251 279.81C226.251 279.623 226.207 279.438 226.122 279.272C226.021 279.05 225.846 278.87 225.627 278.762C225.469 278.698 225.369 278.712 225.369 278.762C225.369 278.813 225.713 278.913 225.878 279.401C225.927 279.53 225.947 279.668 225.937 279.805C225.927 279.943 225.887 280.076 225.82 280.197C225.72 280.321 225.587 280.415 225.436 280.469C225.286 280.524 225.123 280.535 224.967 280.503C224.81 280.472 224.665 280.398 224.547 280.289C224.43 280.181 224.344 280.042 224.3 279.888C224.284 279.751 224.299 279.611 224.344 279.479C224.388 279.348 224.461 279.228 224.558 279.128C224.924 278.719 225.297 278.777 225.297 278.719Z" fill="#263238"/>
<path d="M221.495 278.719C221.495 278.719 221.416 278.648 221.244 278.64C221 278.65 220.767 278.744 220.584 278.906C220.442 279.028 220.331 279.182 220.26 279.355C220.189 279.529 220.16 279.716 220.175 279.903C220.22 280.133 220.332 280.346 220.497 280.513C220.662 280.68 220.873 280.794 221.103 280.842C221.333 280.889 221.572 280.868 221.789 280.78C222.007 280.692 222.194 280.541 222.327 280.347C222.412 280.181 222.456 279.997 222.456 279.81C222.456 279.623 222.412 279.438 222.327 279.272C222.225 279.047 222.047 278.867 221.825 278.762C221.667 278.698 221.566 278.712 221.566 278.762C221.566 278.813 221.911 278.913 222.083 279.401C222.13 279.53 222.149 279.668 222.138 279.806C222.127 279.943 222.086 280.077 222.018 280.197C221.918 280.321 221.785 280.415 221.634 280.469C221.484 280.524 221.321 280.535 221.165 280.503C221.008 280.472 220.863 280.398 220.745 280.289C220.628 280.181 220.542 280.042 220.498 279.888C220.483 279.751 220.499 279.611 220.544 279.48C220.588 279.349 220.661 279.229 220.756 279.128C221.115 278.719 221.495 278.777 221.495 278.719Z" fill="#263238"/>
<path d="M-0.000457764 282.113H327.215V291H-0.000457764V282.113Z" fill="#263238"/>
<path d="M223.625 246.178L218.432 282.329H199.546L194.798 246.178H223.625Z" fill="#455A64"/>
<path d="M225.705 246.177C225.612 243.745 225.06 241.579 223.202 240.145H194.798C193.241 241.328 192.76 243.616 192.552 246.177H225.705Z" fill="#455A64"/>
<path d="M221.373 240.145L218.977 236.616H199.295L197.194 240.145H221.373Z" fill="#455A64"/>
<path d="M194.927 240.03C194.927 240.131 201.024 240.217 208.555 240.217C216.087 240.217 222.184 240.131 222.184 240.03C222.184 239.93 216.087 239.837 208.555 239.837C201.024 239.837 194.927 239.923 194.927 240.03Z" fill="#263238"/>
<path d="M192.553 246.177C192.553 246.278 199.912 246.364 208.978 246.364C218.045 246.364 225.411 246.278 225.411 246.177C225.411 246.077 218.059 245.991 208.978 245.991C199.898 245.991 192.553 246.07 192.553 246.177Z" fill="#263238"/>
<path d="M222.456 254.341H195.867L197.423 266.19H220.756L222.456 254.341Z" fill="#263238"/>
<path d="M132.927 57.317C143.833 67.5201 143.068 86.7432 142.918 97.5078C140.009 90.9233 124.208 78.8455 115.244 81.3456C104.038 84.4707 82.8237 97.5821 79.5737 107.562L78.682 117.748C68.3199 116.67 67.1011 92.1001 68.6615 74.2737C69.4146 65.6691 90.3288 53.2308 101.77 49.4576C115.308 44.993 123.522 48.5176 132.927 57.317Z" fill="#86383C"/>
<path d="M90.8166 101.059C91.6185 97.4566 87.8452 95.6143 84.5426 96.635C82.7215 97.1959 81.0126 98.8427 80.1252 102.66C77.7635 112.855 87.6045 112.837 87.6924 112.564C87.7802 112.29 89.8707 105.292 90.8166 101.059Z" fill="#FAAF88"/>
<path d="M86.9623 107.926C86.9623 107.926 86.7092 107.975 86.3122 108.012C85.7547 108.041 85.1661 107.909 84.6615 107.642C83.9297 107.074 83.3812 106.395 83.072 105.674C82.7628 104.952 82.7039 104.215 82.9013 103.536C83.021 102.749 83.394 102.027 83.9903 101.427C84.1734 101.179 84.4402 100.977 84.7692 100.839C85.0983 100.7 85.4804 100.627 85.8848 100.627C86.1465 100.641 86.4089 100.724 86.6274 100.86C86.8458 100.996 87.0069 101.177 87.083 101.373C87.2054 101.669 87.0868 101.834 87.1521 101.865C87.2175 101.896 87.4528 101.775 87.4324 101.376C87.404 101.135 87.2681 100.894 87.0466 100.692C86.896 100.556 86.7154 100.439 86.5152 100.349C86.3151 100.259 86.0995 100.196 85.8811 100.166C85.3504 100.114 84.8346 100.165 84.3838 100.315C83.9331 100.464 83.5627 100.706 83.3088 101.018C82.622 101.657 82.182 102.44 82.0259 103.299C81.726 105.15 82.6538 107.163 84.4383 107.989C84.7601 108.143 85.1126 108.245 85.4687 108.287C85.8248 108.329 86.1749 108.31 86.4921 108.232C86.8886 108.129 86.9933 107.947 86.9623 107.926Z" fill="#EB996E"/>
<path d="M83.3601 113.162C84.1211 112.29 85.0669 111.625 86.118 111.225H85.9049C86.0978 111.177 86.2937 111.143 86.4911 111.125C86.8494 111.008 87.2268 110.972 87.5987 111.021C87.9706 111.071 88.3286 111.203 88.6495 111.41C89.8548 111.866 90.8543 112.792 91.4473 114.003C91.9096 115.075 92.087 116.263 91.9601 117.436C91.8332 118.61 91.4069 119.723 90.7279 120.655C90.2392 121.504 89.5212 122.174 88.6687 122.578C87.8162 122.981 86.8693 123.099 85.9529 122.916C85.0365 122.732 84.1937 122.256 83.5357 121.549C82.8778 120.843 82.4356 119.94 82.2676 118.96C81.9746 117.974 81.9212 116.924 82.1123 115.91C82.3035 114.895 82.7329 113.95 83.3601 113.162Z" fill="#FF725E"/>
</svg>
