<svg width="30" height="30" viewBox="0 0 30 30" fill="none" xmlns="http://www.w3.org/2000/svg">
<g clip-path="url(#clip0_56_167)">
<path fill-rule="evenodd" clip-rule="evenodd" d="M16.4284 5.54544C15.1216 5.54544 14.0842 5.88337 13.3834 6.58672C12.7445 7.2279 12.4343 8.11021 12.4381 9.18197L12.4382 11.3168H10.9733C10.812 11.3168 10.6816 11.4476 10.6816 11.6085V14.5411C10.6816 14.7023 10.8125 14.8327 10.9733 14.8327H12.4382V23.2538C12.4382 23.415 12.5691 23.5454 12.7299 23.5454H16.3395C16.5007 23.5454 16.6309 23.4144 16.6312 23.2538V14.8328H18.7609C18.9039 14.8328 19.0262 14.7291 19.0489 14.5873L19.3885 11.6185C19.3943 11.538 19.3669 11.4586 19.3115 11.3991C19.2559 11.3391 19.1781 11.3058 19.0976 11.3058H19.0822H16.6444V9.59244C16.6444 9.55641 16.6754 9.47357 16.7593 9.38218C16.7719 9.36843 16.7857 9.35448 16.8008 9.34048C16.9109 9.23824 17.0376 9.18155 17.1351 9.18155H19.1011C19.2624 9.18155 19.3928 9.05071 19.3928 8.88987V5.83712C19.3928 5.67584 19.2619 5.54544 19.1011 5.54544H16.4284ZM13.0216 22.9621H16.0479V14.5411C16.0479 14.3802 16.1783 14.2494 16.3395 14.2494H16.4014H18.5101C18.5724 13.8249 18.6989 12.9025 18.7826 11.8891H16.3528C16.192 11.8891 16.0611 11.7587 16.0611 11.5974V9.59244C16.0611 9.38329 16.1675 9.17512 16.3102 9.01035C16.3371 8.97928 16.3654 8.94975 16.3944 8.92205C16.5814 8.74361 16.8466 8.59819 17.1352 8.59819H18.8095V6.1288H16.4285C15.2578 6.1288 14.3981 6.42073 13.8352 6.96081C13.8222 6.97323 13.8094 6.98578 13.7968 6.99846C13.7351 7.06035 13.677 7.12537 13.6224 7.19352C13.226 7.68864 13.0186 8.34928 13.0216 9.17996L13.0217 9.21057L13.0217 11.6085C13.0217 11.7693 12.8913 11.9002 12.73 11.9002H11.265V14.2494H12.7299C12.8908 14.2494 13.0216 14.3798 13.0216 14.5411V22.9621Z" fill="#49362B"/>
</g>
<circle cx="15" cy="15" r="14.75" stroke="#49362B" stroke-width="0.5"/>
<defs>
<clipPath id="clip0_56_167">
<rect width="10" height="19" fill="white" transform="translate(10 5)"/>
</clipPath>
</defs>
</svg>
