<svg width="30" height="30" viewBox="0 0 30 30" fill="none" xmlns="http://www.w3.org/2000/svg">
<g clip-path="url(#clip0_38_63)">
<path d="M7.24033 15.8232L21.1162 29.6607C21.5708 30.1139 22.3069 30.1131 22.7608 29.6584C23.2143 29.2038 23.2131 28.4673 22.7584 28.0139L9.70846 14.9999L22.7589 1.9861C23.2135 1.53258 23.2147 0.796587 22.7612 0.341902C22.5337 0.113974 22.2356 7.62939e-06 21.9376 7.62939e-06C21.6403 7.62939e-06 21.3434 0.113211 21.1163 0.339558L7.24033 14.1767C7.02137 14.3946 6.89849 14.691 6.89849 14.9999C6.89849 15.3089 7.02172 15.605 7.24033 15.8232Z" fill="#49362B"/>
</g>
<defs>
<clipPath id="clip0_38_63">
<rect width="30" height="30" fill="white" transform="matrix(-1 0 0 -1 30 30)"/>
</clipPath>
</defs>
</svg>
