<svg width="30" height="30" viewBox="0 0 30 30" fill="none" xmlns="http://www.w3.org/2000/svg">
<g clip-path="url(#clip0_56_166)">
<path d="M23.9184 7.55452H7.71836C7.22132 7.55452 6.81836 7.95745 6.81836 8.45452V20.4545C6.81836 20.9515 7.22129 21.3545 7.71836 21.3545H23.9184C24.4154 21.3545 24.8184 20.9516 24.8184 20.4545V8.45452C24.8184 7.95748 24.4154 7.55452 23.9184 7.55452ZM24.2183 20.4545C24.2183 20.6202 24.0841 20.7545 23.9184 20.7545H7.71836C7.55267 20.7545 7.41837 20.6202 7.41837 20.4545V8.45452C7.41837 8.28883 7.55267 8.15453 7.71836 8.15453H23.9184C24.0841 8.15453 24.2183 8.28883 24.2183 8.45452V20.4545Z" fill="#49362B"/>
<path d="M23.3447 8.75563C23.2654 8.7487 23.1866 8.77356 23.1257 8.82475L16.2047 14.6387C15.9814 14.8264 15.6557 14.8264 15.4324 14.6387L8.51148 8.82471C8.42939 8.7558 8.31675 8.73591 8.21603 8.77254C8.11531 8.80917 8.04176 8.89678 8.02313 9.00236C8.0045 9.10793 8.04359 9.2154 8.12568 9.28431L15.0467 15.098C15.4927 15.4736 16.1444 15.4736 16.5905 15.098L23.5115 9.28435C23.5724 9.23319 23.6105 9.15993 23.6175 9.08065C23.6244 9.00137 23.5995 8.92259 23.5483 8.86166C23.4972 8.80066 23.424 8.76256 23.3447 8.75563Z" fill="#49362B"/>
<path d="M12.5883 15.0568C12.4821 15.0331 12.3715 15.0687 12.299 15.1499L8.09903 19.6499C8.02302 19.7278 7.99511 19.8407 8.02612 19.945C8.05712 20.0493 8.14217 20.1286 8.24834 20.1523C8.35454 20.176 8.46522 20.1403 8.53764 20.0591L12.7377 15.5591C12.8137 15.4813 12.8416 15.3683 12.8106 15.2641C12.7796 15.1598 12.6945 15.0805 12.5883 15.0568Z" fill="#49362B"/>
<path d="M19.3374 15.1499C19.2651 15.0687 19.1543 15.0331 19.0481 15.0568C18.9419 15.0805 18.8569 15.1598 18.8259 15.2641C18.7949 15.3684 18.8228 15.4813 18.8988 15.5591L23.0988 20.0591C23.2128 20.1758 23.3989 20.1801 23.5182 20.0689C23.6374 19.9576 23.6459 19.7716 23.5375 19.6499L19.3374 15.1499Z" fill="#49362B"/>
</g>
<circle cx="15" cy="15" r="14.75" stroke="#49362B" stroke-width="0.5"/>
<defs>
<clipPath id="clip0_56_166">
<rect width="18" height="18" fill="white" transform="translate(6.81836 5.45453)"/>
</clipPath>
</defs>
</svg>
