<svg width="30" height="30" viewBox="0 0 30 30" fill="none" xmlns="http://www.w3.org/2000/svg">
<g clip-path="url(#clip0_56_164)">
<path d="M24.346 19.3403L20.7028 16.9107C20.2404 16.6048 19.6207 16.7054 19.2789 17.1419L18.2176 18.5064C18.0812 18.6862 17.8333 18.7384 17.636 18.6288L17.4341 18.5175C16.7649 18.1528 15.9323 17.6986 14.2546 16.0204C12.577 14.3421 12.1219 13.5088 11.7572 12.8409L11.6465 12.639C11.5354 12.4417 11.5866 12.1928 11.7665 12.0553L13.13 10.9943C13.5663 10.6525 13.6671 10.0329 13.3616 9.57045L10.932 5.92719C10.6189 5.45623 9.99073 5.31486 9.50603 5.60622L7.98255 6.52138C7.50386 6.8028 7.15267 7.25857 7.00261 7.79318C6.45401 9.79208 6.86672 13.2419 11.9486 18.3243C15.9911 22.3665 19.0005 23.4536 21.069 23.4536C21.5451 23.4556 22.0193 23.3937 22.4788 23.2694C23.0136 23.1195 23.4694 22.7683 23.7506 22.2895L24.6667 20.7669C24.9585 20.2821 24.8172 19.6536 24.346 19.3403ZM24.1498 20.4591L23.2359 21.9826C23.0339 22.3282 22.7061 22.5823 22.321 22.6917C20.4757 23.1983 17.2518 22.7787 12.373 17.8999C7.4942 13.0211 7.0746 9.79749 7.58123 7.95189C7.69076 7.56635 7.94518 7.23807 8.29121 7.03581L9.81469 6.12185C10.025 5.99531 10.2976 6.05665 10.4335 6.26102L11.7533 8.24251L12.8611 9.90396C12.9937 10.1046 12.9501 10.3734 12.7609 10.5219L11.397 11.5828C10.9819 11.9002 10.8634 12.4745 11.1189 12.9302L11.2272 13.127C11.6106 13.8301 12.0872 14.7048 13.8273 16.4445C15.5673 18.1842 16.4417 18.6609 17.1445 19.0442L17.3415 19.1528C17.7972 19.4083 18.3715 19.2898 18.6889 18.8748L19.7499 17.5109C19.8983 17.3217 20.1671 17.2782 20.3678 17.4107L24.0107 19.8403C24.2152 19.9761 24.2766 20.2488 24.1498 20.4591Z" fill="#49362B"/>
<path d="M17.0177 8.45609C19.8326 8.45922 22.1138 10.7404 22.117 13.5553C22.117 13.721 22.2512 13.8553 22.4169 13.8553C22.5826 13.8553 22.7169 13.721 22.7169 13.5553C22.7134 10.4092 20.1638 7.85965 17.0177 7.8562C16.8521 7.8562 16.7178 7.99048 16.7178 8.15615C16.7178 8.32181 16.8521 8.45609 17.0177 8.45609Z" fill="#49362B"/>
<path d="M17.0177 10.2558C18.8391 10.258 20.3151 11.734 20.3172 13.5554C20.3172 13.721 20.4516 13.8553 20.6172 13.8553C20.7829 13.8553 20.9171 13.721 20.9171 13.5554C20.9146 11.4028 19.1703 9.65841 17.0177 9.65594C16.8521 9.65594 16.7178 9.79022 16.7178 9.95589C16.7178 10.1216 16.8521 10.2558 17.0177 10.2558Z" fill="#49362B"/>
<path d="M17.0177 12.0555C17.8456 12.0565 18.5165 12.7274 18.5175 13.5553C18.5175 13.721 18.6518 13.8553 18.8174 13.8553C18.9831 13.8553 19.1174 13.721 19.1174 13.5553C19.1161 12.3963 18.1768 11.457 17.0177 11.4557C16.8521 11.4557 16.7178 11.5899 16.7178 11.7556C16.7178 11.9213 16.8521 12.0555 17.0177 12.0555Z" fill="#49362B"/>
</g>
<circle cx="15" cy="15" r="14.75" stroke="#49362B" stroke-width="0.5"/>
<defs>
<clipPath id="clip0_56_164">
<rect width="18" height="18" fill="white" transform="translate(6.81836 5.45456)"/>
</clipPath>
</defs>
</svg>
