<svg width="210" height="150" viewBox="0 0 210 150" fill="none" xmlns="http://www.w3.org/2000/svg">
<g clip-path="url(#clip0_16_1776)">
<path d="M73.8996 14.9163C77.615 10.2363 82.7019 6.59004 88.4888 5.14943C99.9933 2.30076 112.312 8.812 119.218 18.4446C122.347 22.8112 124.594 27.7638 127.727 32.1263C130.861 36.4888 135.203 40.3956 140.505 41.242C148.856 42.5728 156.023 36.5417 163.995 35.3656C179.459 33.0826 181.022 48.9538 179.349 60.4583C177.009 76.5777 168.011 92.7337 155.823 103.559C135.406 121.688 105.402 127.28 79.2388 120.931C61.7887 116.695 45.1158 106.993 35.4345 91.8709C30.6731 84.4359 27.6617 75.4138 29.2528 66.7091C30.844 58.0044 37.8965 49.9996 46.7111 49.2101C52.1602 48.7259 58.5656 50.6223 62.5253 46.8458C65.2559 44.2413 65.4675 40.0537 65.8623 36.3016C66.5866 29.5014 68.5563 22.7379 72.345 17.0446C72.8293 16.3203 73.3502 15.6081 73.8996 14.9163Z" fill="#3C725A"/>
<path d="M73.8996 14.9163C77.615 10.2363 82.7019 6.59004 88.4888 5.14943C99.9933 2.30076 112.312 8.812 119.218 18.4446C122.347 22.8112 124.594 27.7638 127.727 32.1263C130.861 36.4888 135.203 40.3956 140.505 41.242C148.856 42.5728 156.023 36.5417 163.995 35.3656C179.459 33.0826 181.022 48.9538 179.349 60.4583C177.009 76.5777 168.011 92.7337 155.823 103.559C135.406 121.688 105.402 127.28 79.2388 120.931C61.7887 116.695 45.1158 106.993 35.4345 91.8709C30.6731 84.4359 27.6617 75.4138 29.2528 66.7091C30.844 58.0044 37.8965 49.9996 46.7111 49.2101C52.1602 48.7259 58.5656 50.6223 62.5253 46.8458C65.2559 44.2413 65.4675 40.0537 65.8623 36.3016C66.5866 29.5014 68.5563 22.7379 72.345 17.0446C72.8293 16.3203 73.3502 15.6081 73.8996 14.9163Z" fill="white" fill-opacity="0.5"/>
<path d="M206.476 131.622H3V131.724H206.476V131.622Z" fill="#EBEBEB"/>
<path d="M186.088 138.17H172.609V138.272H186.088V138.17Z" fill="#EBEBEB"/>
<path d="M137.79 139.277H134.254V139.378H137.79V139.277Z" fill="#EBEBEB"/>
<path d="M172.202 134.393H164.393V134.495H172.202V134.393Z" fill="#EBEBEB"/>
<path d="M41.9249 135.077H24.3486V135.179H41.9249V135.077Z" fill="#EBEBEB"/>
<path d="M48.1268 135.077H45.5508V135.179H48.1268V135.077Z" fill="#EBEBEB"/>
<path d="M94.6252 136.795H56.502V136.896H94.6252V136.795Z" fill="#EBEBEB"/>
<path d="M153.3 43.6674V42.3367H155.485C154.13 38.2078 153.85 33.8014 154.671 29.534C154.671 29.534 154.639 35.1215 156.8 35.1621C160.1 35.2232 160.348 29.534 160.348 29.534C160.348 29.534 161.162 37.673 158.183 42.3367H160.446V43.6837L153.3 43.6674Z" fill="#E0E0E0"/>
<path d="M157.536 35.154C158.588 35.154 159.441 34.3013 159.441 33.2495C159.441 32.1977 158.588 31.345 157.536 31.345C156.485 31.345 155.632 32.1977 155.632 33.2495C155.632 34.3013 156.485 35.154 157.536 35.154Z" fill="#E0E0E0"/>
<path d="M167.714 43.9524L170.322 30.698H178.311L176.419 38.2144L179.218 43.6676L167.714 43.9524Z" fill="#E0E0E0"/>
<path d="M137.192 43.9524L139.801 30.698H147.789L145.897 38.2144L148.697 43.6676L137.192 43.9524Z" fill="#E0E0E0"/>
<path d="M130.702 132.131H177.583V42.7437H130.702V132.131Z" fill="#F0F0F0"/>
<path d="M132.357 64.0517H175.926V45.8447L132.357 45.8447V64.0517Z" fill="#E0E0E0"/>
<path d="M173.455 64.0517H175.93V48.791H173.455V64.0517Z" fill="#EBEBEB"/>
<path d="M161.484 64.0517H163.958V48.791H161.484V64.0517Z" fill="#EBEBEB"/>
<path d="M146.093 63.4495L148.534 64.0518L150.341 49.015L147.9 48.4127L146.093 63.4495Z" fill="#EBEBEB"/>
<path d="M170.383 64.0517H172.857V50.8054H170.383V64.0517Z" fill="#EBEBEB"/>
<path d="M164.699 64.0517H167.173V50.8054H164.699V64.0517Z" fill="#EBEBEB"/>
<path d="M150.337 64.0517H152.812V50.8054H150.337V64.0517Z" fill="#EBEBEB"/>
<path d="M156.229 63.2827L158.647 64.0518L160.649 51.1189L158.236 50.3497L156.229 63.2827Z" fill="#EBEBEB"/>
<path d="M168.247 64.0517H169.484V48.0341H168.247V64.0517Z" fill="#EBEBEB"/>
<path d="M153.524 64.0517H154.761V48.0341H153.524V64.0517Z" fill="#EBEBEB"/>
<path d="M175.931 66.933H132.362V85.14H175.931V66.933Z" fill="#E0E0E0"/>
<path d="M134.837 69.8793H132.362V85.14H134.837V69.8793Z" fill="#EBEBEB"/>
<path d="M146.8 69.8793H144.326V85.14H146.8V69.8793Z" fill="#EBEBEB"/>
<path d="M162.196 84.5377L159.758 85.14L157.947 70.1031L160.389 69.5009L162.196 84.5377Z" fill="#EBEBEB"/>
<path d="M137.901 71.8938H135.427V85.1401H137.901V71.8938Z" fill="#EBEBEB"/>
<path d="M143.589 71.8938H141.115V85.1401H143.589V71.8938Z" fill="#EBEBEB"/>
<path d="M157.947 71.8938H155.473V85.1401H157.947V71.8938Z" fill="#EBEBEB"/>
<path d="M152.058 84.3709L149.641 85.1401L147.639 72.2071L150.052 71.438L152.058 84.3709Z" fill="#EBEBEB"/>
<path d="M140.041 69.1223H138.804V85.1399H140.041V69.1223Z" fill="#EBEBEB"/>
<path d="M154.764 69.1223H153.527V85.1399H154.764V69.1223Z" fill="#EBEBEB"/>
<path d="M173.455 85.14H175.93V69.8793H173.455V85.14Z" fill="#EBEBEB"/>
<path d="M170.383 85.1359H172.857V71.8896H170.383V85.1359Z" fill="#EBEBEB"/>
<path d="M164.699 85.1359H167.173V71.8896H164.699V85.1359Z" fill="#EBEBEB"/>
<path d="M168.247 85.14H169.484V69.1224H168.247V85.14Z" fill="#EBEBEB"/>
<path d="M132.357 106.228H175.926V88.0212H132.357V106.228Z" fill="#E0E0E0"/>
<path d="M148.445 106.228H150.919V90.9675H148.445V106.228Z" fill="#EBEBEB"/>
<path d="M133.054 105.626L135.491 106.228L137.298 91.1915L134.861 90.5892L133.054 105.626Z" fill="#EBEBEB"/>
<path d="M157.345 106.228H159.819V92.9819H157.345V106.228Z" fill="#EBEBEB"/>
<path d="M151.66 106.228H154.134V92.9819H151.66V106.228Z" fill="#EBEBEB"/>
<path d="M137.298 106.228H139.772V92.9819H137.298V106.228Z" fill="#EBEBEB"/>
<path d="M143.19 105.459L145.608 106.228L147.61 93.2952L145.197 92.5261L143.19 105.459Z" fill="#EBEBEB"/>
<path d="M155.208 106.232H156.445V90.2148H155.208V106.232Z" fill="#EBEBEB"/>
<path d="M140.488 106.232H141.726V90.2148H140.488V106.232Z" fill="#EBEBEB"/>
<path d="M161.528 105.626L163.966 106.228L165.773 91.1915L163.335 90.5892L161.528 105.626Z" fill="#EBEBEB"/>
<path d="M165.773 106.228H168.247V92.9819H165.773V106.228Z" fill="#EBEBEB"/>
<path d="M171.665 105.459L174.082 106.228L176.085 93.2952L173.667 92.5261L171.665 105.459Z" fill="#EBEBEB"/>
<path d="M168.959 106.232H170.196V90.2148H168.959V106.232Z" fill="#EBEBEB"/>
<path d="M185.672 42.7396H177.586V132.383H185.672V42.7396Z" fill="#E0E0E0"/>
<path d="M101.108 11.7992H23.8037V48.0342H101.108V11.7992Z" fill="#EBEBEB"/>
<path d="M99.8867 46.8132V13.0199L25.0238 13.0199V46.8132L99.8867 46.8132Z" fill="#F0F0F0"/>
<path d="M57.4497 29.4894C58.4834 27.6174 60.6606 28.2115 61.8367 29.5748C62.8744 28.1057 64.9865 27.304 66.1951 29.0743C68.2299 32.0532 64.4697 35.085 62.6831 36.2895L62.1745 36.6314C62.0239 36.5541 61.8489 36.4564 61.6332 36.3384C59.7368 35.3128 55.7039 32.6555 57.4497 29.4894Z" fill="#FAFAFA"/>
<path d="M45.1808 23.4054C45.1821 23.0985 45.1113 22.7956 44.974 22.5211C44.8368 22.2466 44.6369 22.0083 44.3905 21.8253C44.1441 21.6423 43.8582 21.5198 43.5558 21.4677C43.2534 21.4156 42.9429 21.4353 42.6495 21.5253C42.6789 21.3245 42.6938 21.1218 42.6943 20.9189C42.6932 19.8155 42.2541 18.7576 41.4735 17.9778C40.6929 17.1979 39.6346 16.7598 38.5312 16.7598C38.2732 16.7599 38.0158 16.7831 37.762 16.829C37.3512 16.156 36.7329 15.6346 36.0001 15.3434C35.2674 15.0522 34.4598 15.0069 33.6991 15.2144C32.9384 15.4219 32.2657 15.871 31.7823 16.4939C31.2989 17.1169 31.0309 17.88 31.0188 18.6685H30.9578C30.0684 18.6685 29.2155 19.0217 28.5866 19.6506C27.9578 20.2795 27.6045 21.1324 27.6045 22.0217C27.6045 22.9111 27.9578 23.764 28.5866 24.3929C29.2155 25.0217 30.0684 25.375 30.9578 25.375H43.2884C43.7976 25.356 44.2796 25.14 44.6326 24.7726C44.9856 24.4051 45.1822 23.9149 45.1808 23.4054Z" fill="#F5F5F5"/>
<path d="M60.0308 19.4498C60.0298 19.244 59.9475 19.0469 59.802 18.9014C59.6564 18.7558 59.4594 18.6736 59.2535 18.6725C59.1778 18.6729 59.1024 18.6839 59.0297 18.7051C59.0359 18.6252 59.0359 18.5449 59.0297 18.465C59.0297 18.0333 58.8582 17.6192 58.5529 17.314C58.2477 17.0087 57.8336 16.8372 57.4019 16.8372C57.2996 16.8386 57.1975 16.8481 57.0967 16.8657C56.935 16.5984 56.6905 16.3911 56.4004 16.2752C56.1103 16.1594 55.7903 16.1412 55.4889 16.2236C55.1876 16.306 54.9213 16.4843 54.7304 16.7316C54.5395 16.9789 54.4345 17.2817 54.4312 17.5941H54.4067C54.0549 17.5941 53.7174 17.7339 53.4686 17.9827C53.2199 18.2315 53.0801 18.5689 53.0801 18.9208C53.0801 19.2726 53.2199 19.6101 53.4686 19.8589C53.7174 20.1077 54.0549 20.2475 54.4067 20.2475H59.2902C59.4935 20.2379 59.6849 20.1491 59.8234 19.9999C59.9619 19.8508 60.0364 19.6533 60.0308 19.4498Z" fill="#F5F5F5"/>
<path d="M78.1924 41.8689C78.1913 41.6101 78.2414 41.3536 78.3397 41.1142C78.438 40.8748 78.5826 40.6571 78.7652 40.4737C78.9478 40.2904 79.1649 40.1448 79.4039 40.0456C79.6429 39.9463 79.8992 39.8952 80.158 39.8952C80.3495 39.8951 80.5399 39.9225 80.7236 39.9765C80.6358 39.3851 80.6766 38.7816 80.8434 38.2074C81.0101 37.6332 81.2989 37.1017 81.6899 36.6493C82.0808 36.1969 82.5649 35.8342 83.1089 35.586C83.6529 35.3378 84.244 35.2099 84.842 35.2111C85.0986 35.2114 85.3546 35.2346 85.6071 35.2803C86.0171 34.6054 86.6355 34.0821 87.3691 33.7897C88.1027 33.4972 88.9115 33.4513 89.6734 33.659C90.4353 33.8668 91.109 34.3167 91.5926 34.9411C92.0763 35.5654 92.3436 36.3301 92.3543 37.1197H92.4154C93.3047 37.1197 94.1576 37.473 94.7865 38.1019C95.4154 38.7308 95.7687 39.5837 95.7687 40.473C95.7687 41.3624 95.4154 42.2153 94.7865 42.8442C94.1576 43.473 93.3047 43.8263 92.4154 43.8263H80.101C79.5907 43.8126 79.1059 43.6004 78.7495 43.2349C78.3931 42.8694 78.1933 42.3794 78.1924 41.8689Z" fill="#F5F5F5"/>
<path d="M61.3408 41.6002C61.3408 41.4711 61.3663 41.3432 61.4159 41.224C61.4654 41.1047 61.538 40.9964 61.6295 40.9053C61.721 40.8142 61.8296 40.742 61.9491 40.693C62.0685 40.6439 62.1965 40.6189 62.3257 40.6195C62.4208 40.6184 62.5155 40.6322 62.6065 40.6602C62.5935 40.5603 62.5867 40.4597 62.5861 40.359C62.5856 40.0856 62.639 39.8148 62.7432 39.562C62.8475 39.3092 63.0006 39.0795 63.1937 38.886C63.3869 38.6924 63.6163 38.5389 63.8689 38.4341C64.1215 38.3294 64.3922 38.2754 64.6656 38.2754C64.794 38.2751 64.9222 38.2874 65.0482 38.3121C65.2532 37.9746 65.5624 37.713 65.9292 37.5667C66.296 37.4205 66.7004 37.3976 67.0813 37.5014C67.4623 37.6053 67.7991 37.8303 68.0409 38.1424C68.2828 38.4546 68.4164 38.8369 68.4218 39.2318H68.4544C68.899 39.2318 69.3255 39.4084 69.6399 39.7229C69.9544 40.0373 70.131 40.4637 70.131 40.9084C70.131 41.3531 69.9544 41.7796 69.6399 42.094C69.3255 42.4084 68.899 42.5851 68.4544 42.5851H62.2972C62.0406 42.5787 61.7968 42.472 61.618 42.2879C61.4392 42.1037 61.3397 41.8569 61.3408 41.6002Z" fill="#F5F5F5"/>
<path d="M46.7632 35.3738C45.7703 33.3391 45.0459 28.533 46.165 26.3273C47.2841 24.1216 47.0318 26.4657 47.0318 26.4657C47.0318 26.4657 47.8457 23.8896 48.7451 23.4461C49.6444 23.0025 49.3392 24.5286 49.3392 24.5286C49.3392 24.5286 50.5601 22.3921 51.4269 21.9729C52.2937 21.5537 51.9966 23.0106 51.9966 23.0106C51.9966 23.0106 52.9082 21.102 53.8035 21.2851C54.6988 21.4683 49.327 31.638 49.616 34.4134C49.9049 37.1888 47.7643 37.4534 46.7632 35.3738Z" fill="#FAFAFA"/>
<path d="M53.8363 31.1171L55.3583 31.2229C55.3809 31.2254 55.4022 31.2351 55.4188 31.2506C55.4355 31.2661 55.4467 31.2865 55.4509 31.3089C55.455 31.3313 55.4518 31.3545 55.4417 31.3749C55.4316 31.3953 55.4152 31.4119 55.3949 31.4223L54.1741 31.9798L54.7723 32.8303C54.7878 32.8502 54.7963 32.8747 54.7964 32.9C54.7965 32.9252 54.7882 32.9498 54.7728 32.9698C54.7575 32.9898 54.7359 33.0041 54.7115 33.0106C54.6871 33.017 54.6612 33.0152 54.638 33.0053L53.5352 32.5984L53.8363 31.1171Z" fill="#E0E0E0"/>
<path d="M35.6006 35.3005C35.6006 35.3005 36.5569 33.3675 39.2998 32.7815C39.2998 32.7815 41.6764 35.5203 44.0937 35.5406C45.4203 35.5406 47.8865 34.1407 49.5021 32.4234C51.427 30.3886 52.5705 29.7578 53.4739 30.3886C54.3774 31.0194 54.4058 32.2036 52.8513 33.6035C51.2967 35.0034 51.5857 38.8939 48.3748 40.717C45.164 42.5402 41.6601 40.2368 40.895 36.9242C39.3224 35.8865 37.4846 35.3228 35.6006 35.3005Z" fill="#FAFAFA"/>
<path d="M52.9042 31.4793C52.9251 31.5218 52.9292 31.5705 52.9156 31.6158C52.902 31.6611 52.8718 31.6996 52.831 31.7235C52.7883 31.7467 52.7382 31.752 52.6917 31.7382C52.6451 31.7245 52.606 31.6929 52.5827 31.6503C52.5618 31.6078 52.5578 31.5591 52.5714 31.5138C52.585 31.4685 52.6152 31.43 52.656 31.4061C52.6986 31.3829 52.7487 31.3776 52.7953 31.3913C52.8418 31.4051 52.881 31.4367 52.9042 31.4793Z" fill="#E0E0E0"/>
<path d="M46.1937 38.5521C44.5659 40.127 40.2156 42.3002 37.7739 41.9176C35.3322 41.5351 37.6314 41.0468 37.6314 41.0468C37.6314 41.0468 34.9374 41.0875 34.2334 40.3509C33.5294 39.6143 35.0799 39.4515 35.0799 39.4515C35.0799 39.4515 32.6707 38.955 32.0074 38.2551C31.344 37.5551 32.8213 37.3923 32.8213 37.3923C32.8213 37.3923 30.7255 37.1156 30.6237 36.2081C30.522 35.3006 41.8515 37.2784 44.3991 36.1389C46.9466 34.9995 47.8419 36.961 46.1937 38.5521Z" fill="#FAFAFA"/>
<path d="M78.2003 27.2795C78.0945 25.0128 76.4179 20.4509 74.379 19.055C72.3402 17.6592 73.6832 19.5922 73.6832 19.5922C73.6832 19.5922 71.7501 17.7161 70.7287 17.769C69.7072 17.8219 70.7287 18.9899 70.7287 18.9899C70.7287 18.9899 68.6369 17.6999 67.6725 17.769C66.708 17.8382 67.6725 18.9492 67.6725 18.9492C67.6725 18.9492 65.9551 17.7283 65.2552 18.3062C64.5552 18.8841 74.1634 25.2244 75.2377 27.8045C76.3121 30.3846 78.3102 29.5788 78.2003 27.2795Z" fill="#FAFAFA"/>
<path d="M69.9521 26.95L68.6702 27.7639C68.65 27.7764 68.6345 27.7954 68.6264 27.8178C68.6183 27.8402 68.618 27.8647 68.6255 27.8873C68.6331 27.9099 68.648 27.9292 68.6679 27.9423C68.6878 27.9554 68.7116 27.9613 68.7353 27.9592L70.0823 27.8534L69.9684 28.887C69.9651 28.9114 69.9697 28.9362 69.9817 28.9577C69.9936 28.9792 70.0122 28.9963 70.0346 29.0063C70.0571 29.0164 70.0821 29.019 70.1062 29.0136C70.1302 29.0082 70.1518 28.9952 70.1678 28.9766L70.9613 28.0935L69.9521 26.95Z" fill="#E0E0E0"/>
<path d="M87.9553 21.855C87.9553 21.855 86.1851 20.6341 83.5033 21.4481C83.5033 21.4481 82.73 24.9885 80.622 26.1687C79.4622 26.8158 76.6258 26.7629 74.3794 26.0344C71.7138 25.1717 70.4075 25.1717 69.9273 26.1687C69.4471 27.1657 69.9802 28.2035 72.0191 28.6918C74.0579 29.1801 75.6816 32.7166 79.3686 32.7613C83.0556 32.8061 85.0212 29.0988 84.0933 25.8431C84.971 24.1705 86.3117 22.786 87.9553 21.855Z" fill="#FAFAFA"/>
<path d="M70.9609 26.8198C70.9609 26.856 70.9717 26.8914 70.9918 26.9215C71.0119 26.9516 71.0405 26.9751 71.074 26.989C71.1074 27.0028 71.1443 27.0065 71.1798 26.9994C71.2153 26.9923 71.2479 26.9749 71.2736 26.9493C71.2992 26.9237 71.3166 26.891 71.3237 26.8555C71.3307 26.82 71.3271 26.7832 71.3133 26.7497C71.2994 26.7162 71.2759 26.6876 71.2458 26.6675C71.2157 26.6474 71.1803 26.6367 71.1441 26.6367C71.0955 26.6367 71.0489 26.656 71.0146 26.6903C70.9802 26.7246 70.9609 26.7712 70.9609 26.8198Z" fill="#E0E0E0"/>
<path d="M80.2317 29.7986C82.417 30.3968 87.272 30.2056 89.2294 28.6998C91.1868 27.1941 88.9364 27.8859 88.9364 27.8859C88.9364 27.8859 91.3171 26.6244 91.5816 25.6396C91.8461 24.6547 90.4055 25.257 90.4055 25.257C90.4055 25.257 92.2815 23.6658 92.5257 22.7298C92.7699 21.7939 91.4025 22.3677 91.4025 22.3677C91.4025 22.3677 93.1077 21.1142 92.7617 20.2678C92.4158 19.4213 83.4263 26.604 80.6468 26.8319C77.8673 27.0598 78.0179 29.1963 80.2317 29.7986Z" fill="#FAFAFA"/>
<path d="M104.738 150C148.315 150 183.642 147.938 183.642 145.393C183.642 142.849 148.315 140.787 104.738 140.787C61.1605 140.787 25.834 142.849 25.834 145.393C25.834 147.938 61.1605 150 104.738 150Z" fill="#F5F5F5"/>
<path d="M105.755 98.9031H121.423H121.589C122.658 98.9031 123.683 99.3276 124.438 100.083C125.194 100.839 125.618 101.863 125.618 102.932V146.891H101.966V102.916C101.953 101.886 102.342 100.892 103.049 100.143C103.756 99.3941 104.726 98.9495 105.755 98.9031Z" fill="#3C725A"/>
<path opacity="0.5" d="M105.755 98.9031H121.423H121.589C122.658 98.9031 123.683 99.3276 124.438 100.083C125.194 100.839 125.618 101.863 125.618 102.932V146.891H101.966V102.916C101.953 101.886 102.342 100.892 103.049 100.143C103.756 99.3941 104.726 98.9495 105.755 98.9031Z" fill="white"/>
<path opacity="0.6" d="M121.574 98.9031C122.642 98.9031 123.667 99.3276 124.423 100.083C125.178 100.839 125.603 101.863 125.603 102.932V146.891H117.545V102.916C117.549 101.85 117.976 100.829 118.731 100.077C119.486 99.3254 120.508 98.9031 121.574 98.9031Z" fill="white"/>
<path d="M29.2522 88.5013H97.4126C98.2883 88.5013 99.1282 88.8489 99.7478 89.4678C100.367 90.0866 100.716 90.926 100.717 91.8017L105.194 120.39H30.4364L25.96 91.8017C25.96 90.9278 26.3066 90.0896 26.9237 89.4709C27.5409 88.8522 28.3783 88.5035 29.2522 88.5013Z" fill="#3C725A"/>
<path opacity="0.4" d="M29.2522 88.5013H97.4126C98.2883 88.5013 99.1282 88.8489 99.7478 89.4678C100.367 90.0866 100.716 90.926 100.717 91.8017L105.194 120.39H30.4364L25.96 91.8017C25.96 90.9278 26.3066 90.0896 26.9237 89.4709C27.5409 88.8522 28.3783 88.5035 29.2522 88.5013Z" fill="white"/>
<path opacity="0.2" d="M37.0413 120.813H30.4364L25.96 91.8017C25.96 91.368 26.0455 90.9385 26.2116 90.5378C26.3777 90.1371 26.6212 89.7731 26.9281 89.4666C27.235 89.16 27.5993 88.917 28.0002 88.7514C28.4011 88.5858 28.8307 88.5008 29.2644 88.5013C30.1397 88.5013 30.9792 88.8491 31.5981 89.468C32.2171 90.0869 32.5648 90.9264 32.5648 91.8017L37.0413 120.813Z" fill="#49362B"/>
<path d="M47.48 146.891H114.916V117.167H47.48V146.891Z" fill="#3C725A"/>
<path opacity="0.4" d="M47.48 146.891H114.916V117.167H47.48V146.891Z" fill="white"/>
<path d="M40.9111 123.149H112.665C113.222 123.149 113.774 123.04 114.289 122.826C114.804 122.613 115.272 122.3 115.666 121.906C116.06 121.512 116.373 121.044 116.586 120.529C116.8 120.014 116.909 119.462 116.909 118.905C116.909 117.779 116.462 116.699 115.666 115.903C114.87 115.107 113.791 114.66 112.665 114.66H40.9111V123.149Z" fill="#3C725A"/>
<path opacity="0.6" d="M40.9111 123.149H112.665C113.222 123.149 113.774 123.04 114.289 122.826C114.804 122.613 115.272 122.3 115.666 121.906C116.06 121.512 116.373 121.044 116.586 120.529C116.8 120.014 116.909 119.462 116.909 118.905C116.909 117.779 116.462 116.699 115.666 115.903C114.87 115.107 113.791 114.66 112.665 114.66H40.9111V123.149Z" fill="white"/>
<path d="M44.8862 61.96C44.8862 61.96 43.0793 61.8135 41.3253 65.3702C39.5714 68.927 42.4689 78.6084 42.4689 78.6084L54.4902 79.2392C54.4902 79.2392 55.0274 78.5351 55.7111 72.6303C56.3948 66.7254 55.821 60.556 50.6283 59.0625C46.8029 57.9556 44.8862 61.96 44.8862 61.96Z" fill="#263238"/>
<path d="M56.9329 94.0969L44.5941 95.041C44.5005 93.5964 44.4598 92.1354 44.2889 90.7965C44.076 89.1146 43.7552 87.4481 43.3285 85.8073C43.0355 84.6271 42.6651 83.3045 42.189 81.7785C42.1239 81.575 42.0629 81.3715 41.9937 81.1558C41.7943 80.5251 41.5867 79.8536 41.3425 79.1496C41.0984 78.4455 40.8501 77.6764 40.5693 76.8747C42.2461 76.3469 43.9583 75.939 45.6929 75.6538C47.5241 75.3276 49.3765 75.1331 51.2356 75.0719C53.6325 75.0516 56.3916 75.3201 56.3916 75.3201C56.3916 75.3201 56.7986 75.4137 57.0346 77.9613C57.2584 80.3338 57.4253 85.4044 56.9329 94.0969Z" fill="#3C725A"/>
<path opacity="0.2" d="M52.8226 88.8554C49.4856 92.1517 46.3847 91.7773 44.2767 90.7966C44.0638 89.1146 43.743 87.4481 43.3162 85.8073C43.0232 84.6272 42.6529 83.3046 42.1768 81.7785C42.1117 81.575 42.0506 81.3716 41.9814 81.1559C42.3029 80.4315 42.7953 79.9635 43.475 79.9798C46.4823 80.053 51.2274 85.3068 51.2274 85.3068L52.8226 88.8554Z" fill="#49362B"/>
<path d="M56.3957 75.2998C58.2229 75.5887 59.0409 76.7567 61.2791 81.8639C62.9924 85.7788 62.2802 87.0282 60.9169 87.6182C57.4782 89.1077 49.7461 88.0822 49.7461 88.0822L57.2828 83.4388C57.2828 83.4388 56.062 79.1211 56.062 78.2868C56.0244 77.2801 56.1368 76.2734 56.3957 75.2998Z" fill="#3C725A"/>
<path opacity="0.1" d="M60.913 87.6182C59.6108 88.1839 57.694 88.3874 55.818 88.4321H55.2727C53.4239 88.4277 51.5771 88.3122 49.7422 88.0862L57.283 83.4388C57.283 83.4388 56.9859 82.4011 56.6848 81.2535C56.4001 80.2817 56.1879 79.2901 56.0499 78.2868C56.0146 77.2754 56.1312 76.2644 56.3959 75.2876C58.2231 75.5765 59.041 76.7404 61.2793 81.8517C62.9885 85.7829 62.2763 87.0322 60.913 87.6182Z" fill="white"/>
<path opacity="0.2" d="M59.3344 83.7523C59.0054 84.7653 58.4754 85.7015 57.7761 86.5049C57.0769 87.3084 56.2228 87.9625 55.2649 88.4282C53.4161 88.4237 51.5693 88.3082 49.7344 88.0823L57.2833 83.4389C57.2833 83.4389 56.9863 82.4012 56.6851 81.2536C58.0036 83.2192 58.6466 82.3768 59.3344 83.7523Z" fill="#49362B"/>
<path d="M40.5735 76.8747C36.793 78.47 43.6298 89.0833 47.4632 90.3408C51.2967 91.5983 59.4195 83.6953 59.4195 83.6953C58.1391 83.4365 56.8207 83.4282 55.5372 83.6708C50.8613 84.7289 49.559 85.4045 48.619 84.4156C47.6789 83.4267 43.2594 75.7393 40.5735 76.8747Z" fill="#3C725A"/>
<path opacity="0.1" d="M40.5735 76.8747C36.793 78.47 43.6298 89.0833 47.4632 90.3408C51.2967 91.5983 59.4195 83.6953 59.4195 83.6953C58.1391 83.4365 56.8207 83.4282 55.5372 83.6708C50.8613 84.7289 49.559 85.4045 48.619 84.4156C47.6789 83.4267 43.2594 75.7393 40.5735 76.8747Z" fill="white"/>
<path d="M51.4558 84.6598C51.4558 84.6598 49.1606 83.4389 48.5543 83.2558C47.9479 83.0727 46.6701 84.0941 46.5887 84.3505C46.5073 84.6069 49.242 86.0515 49.4374 85.9783C49.6327 85.905 51.4558 84.6598 51.4558 84.6598Z" fill="#FAAF88"/>
<path d="M43.7314 76.3091C45.6846 77.5608 47.9268 78.2895 50.2427 78.4253C51.7991 77.7692 53.1966 76.7866 54.3407 75.544C54.3407 75.544 49.7584 74.1156 43.7314 76.3091Z" fill="#FAAF88"/>
<path d="M47.2095 77.7782C50.2535 77.3713 51.165 76.0894 51.165 76.0894C50.7038 75.6554 50.3943 75.0848 50.282 74.4616C50.1496 73.4554 50.2901 72.4322 50.6889 71.499C50.7866 71.2629 50.8558 71.1246 50.8558 71.1246L46.9612 70.0095C46.9938 70.2211 47.0508 70.6484 47.1118 71.1246C47.2176 72.0036 47.3315 73.0535 47.3356 73.3303C47.3641 75.5522 46.3589 75.5766 46.3589 75.5766C45.6915 76.7853 47.2095 77.7782 47.2095 77.7782Z" fill="#FAAF88"/>
<path d="M84.1098 134.165L81.6518 134.755L80.4106 131.361L79.2793 128.277L82.0791 127.08L83.1576 130.828L84.1098 134.165Z" fill="#FAAF88"/>
<path opacity="0.2" d="M83.1576 130.828L80.4106 131.361L79.2793 128.277L82.0791 127.08L83.1576 130.828Z" fill="#49362B"/>
<path d="M82.9093 129.018C82.9093 129.018 74.1964 137.31 67.5005 137.5C64.9333 137.573 61.5005 136.5 61.5005 136.5C61.5005 136.5 70.4036 107.559 68.5194 107.482C66.6353 107.404 47.6143 116.15 42.8448 111.299C38.0754 106.448 44.5825 95.0411 44.5825 95.0411C44.257 95.1428 56.3841 92.4895 56.9213 94.097C57.0882 94.5975 57.662 97.1939 57.7963 98.0363C57.9305 98.8787 58.016 99.4932 58.016 99.4932C58.3741 99.4036 69.8909 96.4329 74.4325 99.4932C79.0595 102.614 82.9093 129.018 82.9093 129.018Z" fill="#263238"/>
<path opacity="0.1" d="M82.8116 129.439C82.8116 129.439 75.0487 136.478 69 137.5C65.8821 138.027 60.9028 136.921 60.9028 136.921C60.9028 136.921 65.287 111.999 63.4028 111.921C61.5186 111.844 48.9028 113.921 42.7472 111.72C37.9777 106.869 44.4849 95.4626 44.4849 95.4626C44.1593 95.5643 56.2865 92.911 56.8237 94.5184C56.9905 95.019 57.5643 97.6153 57.6986 98.4577C57.8329 99.3001 57.9184 99.9146 57.9184 99.9146C58.2765 99.8251 69.7932 96.8543 74.3348 99.9146C78.9618 103.036 82.8116 129.439 82.8116 129.439Z" fill="white"/>
<path d="M63.8874 141.047L61.2178 140.453L61.3154 139.724L61.755 136.501L64.7827 136.774L63.9973 140.53L63.8874 141.047Z" fill="#FAAF88"/>
<path opacity="0.2" d="M64.5227 138.019L61.5967 137.633L61.7472 136.534L64.779 136.79L64.5227 138.019Z" fill="#49362B"/>
<path d="M51.0977 112.467C51.0977 112.467 51.8749 112.467 63.9126 111.922C63.9126 111.922 62.1261 125.489 61.1453 136.746L65.3328 137.267C65.3328 137.267 73.3294 114.717 73.2358 110.888C73.1423 107.058 68.7594 105.931 68.7594 105.931C68.7594 105.931 60.1727 110.896 51.0977 112.467Z" fill="#263238"/>
<path opacity="0.2" d="M58.028 99.4931L51.3174 100.893C51.3174 100.893 55.0288 98.8582 57.8286 98.0443C57.9385 98.8297 58.028 99.4931 58.028 99.4931Z" fill="#49362B"/>
<path d="M88.4597 138.467C88.0861 138.297 87.685 138.195 87.2755 138.166C87.2755 138.166 85.8552 137.332 84.4268 134.096H82.8437C82.5753 134.098 82.3139 134.182 82.0954 134.338C81.8768 134.494 81.7118 134.714 81.6229 134.967C81.5975 135.038 81.5824 135.112 81.5781 135.187C81.5944 135.569 81.6352 135.95 81.7002 136.326C81.9325 137.585 82.241 138.829 82.624 140.05L82.8926 139.981L82.4042 137.621C82.2455 136.807 83.0879 137.592 83.4786 138.402C83.8693 139.212 84.4675 140.03 86.2174 139.623C88.2766 139.126 89.0986 138.833 88.4597 138.467Z" fill="#263238"/>
<path d="M81.6025 134.987C81.3054 134.218 80.9229 132.851 80.9229 132.851L84.3128 132.375C84.3128 132.375 84.3128 134.043 84.9395 135.134C83.1692 135.122 81.6025 134.987 81.6025 134.987Z" fill="#263238"/>
<path d="M66.4068 146.423C66.1148 146.132 65.7712 145.899 65.3935 145.735C65.3935 145.735 64.3436 144.465 64.1279 140.933L62.6425 140.384C62.3904 140.295 62.1169 140.286 61.8597 140.359C61.6024 140.432 61.3741 140.583 61.206 140.791C61.1568 140.848 61.1169 140.912 61.088 140.982C60.9733 141.348 60.8809 141.72 60.8112 142.097C60.5988 143.359 60.4629 144.632 60.4043 145.91L60.681 145.939L61.0269 143.554C61.149 142.74 61.6781 143.757 61.7676 144.653C61.8571 145.548 62.1461 146.516 63.9244 146.736C66.0121 146.98 66.8911 146.984 66.4068 146.423Z" fill="#263238"/>
<path d="M61.1494 140.819C61.1494 140.005 61.2389 138.577 61.2389 138.577L64.5882 139.289C64.5882 139.289 64.0184 140.856 64.2341 142.097C62.5737 141.474 61.1494 140.819 61.1494 140.819Z" fill="#263238"/>
<path d="M44.5127 93.6493L44.5941 95.0411L56.9329 94.0969L57.0428 92.3552L44.5127 93.6493Z" fill="#263238"/>
<path d="M54.2512 94.3004L51.549 94.508L51.374 92.9412L54.068 92.6645L54.2512 94.3004Z" fill="white"/>
<path d="M48.8507 94.7155L48.2402 94.7644L48.1426 93.2749L48.753 93.2139L48.8507 94.7155Z" fill="#3C725A"/>
<path d="M56.3998 94.1377L55.7894 94.1824L55.6836 92.4977L56.294 92.4326L56.3998 94.1377Z" fill="#3C725A"/>
<g opacity="0.5">
<path opacity="0.5" d="M48.8507 94.7155L48.2402 94.7644L48.1426 93.2749L48.753 93.2139L48.8507 94.7155Z" fill="white"/>
</g>
<g opacity="0.5">
<path opacity="0.5" d="M56.3998 94.1377L55.7894 94.1824L55.6836 92.4977L56.294 92.4326L56.3998 94.1377Z" fill="white"/>
</g>
<path opacity="0.2" d="M44.5127 93.6493L44.5941 95.0411L56.9329 94.0969L57.0428 92.3552L44.5127 93.6493Z" fill="white"/>
<path opacity="0.2" d="M47.0796 71.1164C47.1488 71.3484 48.0278 74.0302 50.262 74.4372C50.1296 73.431 50.2702 72.4078 50.6689 71.4746L47.0918 71.1002L47.0796 71.1164Z" fill="#49362B"/>
<path d="M54.6813 71.385C54.6813 71.385 55.5848 75.0679 52.7687 77.8677C51.4146 79.281 50.355 80.9492 49.6514 82.7756C49.6514 82.7756 48.923 81.2699 51.5152 74.4534C52.8053 71.0554 52.2518 70.3188 52.2518 70.3188L54.6813 71.385Z" fill="#263238"/>
<path d="M52.4189 71.1163C52.0665 72.7097 51.534 74.2579 50.8318 75.7311C49.7046 78.0426 49.2447 78.8239 49.4034 80.5616" stroke="#263238" stroke-width="0.5" stroke-linecap="round" stroke-linejoin="round"/>
<path d="M49.1264 62.2123C52.3088 62.0373 53.4238 63.6855 53.8389 66.9492C54.3517 71.0188 53.6029 73.9936 49.5781 73.3384C44.1087 72.4512 43.8401 62.5013 49.1264 62.2123Z" fill="#FAAF88"/>
<path d="M52.997 66.4194C53.0113 66.5548 52.9739 66.6905 52.8928 66.7974C52.8118 66.9043 52.6936 66.9737 52.5638 66.9908C52.5009 67.0036 52.4362 67.0031 52.3736 66.9892C52.3109 66.9753 52.2516 66.9484 52.1992 66.91C52.1468 66.8716 52.1024 66.8226 52.0687 66.7659C52.035 66.7092 52.0126 66.646 52.003 66.58C51.9887 66.4452 52.0257 66.3098 52.1062 66.203C52.1866 66.0962 52.304 66.0265 52.4333 66.0087C52.4963 65.9963 52.561 65.9972 52.6237 66.0112C52.6864 66.0252 52.7458 66.0522 52.7983 66.0904C52.8508 66.1287 52.8955 66.1775 52.9296 66.234C52.9637 66.2905 52.9867 66.3536 52.997 66.4194Z" fill="#263238"/>
<path d="M53 64.7097C52.9434 64.8224 52.538 64.4371 51.9986 64.517C51.4591 64.5969 51.1045 65.0856 51.027 64.9869C50.9495 64.8882 51.0478 64.7473 51.2088 64.517C51.4256 64.2264 51.6943 64.0491 51.9777 64.0095C52.2581 63.9673 52.5398 64.066 52.7824 64.2915C52.9464 64.4794 53 64.658 53 64.7097Z" fill="#263238"/>
<path d="M48.9976 66.4182C49.0104 66.554 48.9722 66.6897 48.8911 66.7968C48.81 66.9039 48.6923 66.9741 48.5627 66.9927C48.4363 67.0153 48.3066 66.9849 48.2017 66.9081C48.0967 66.8313 48.0252 66.7144 48.0027 66.5828C47.9892 66.4468 48.027 66.3108 48.1082 66.2035C48.1895 66.0962 48.3076 66.0261 48.4376 66.0083C48.5002 65.9962 48.5645 65.9973 48.6268 66.0115C48.689 66.0257 48.7479 66.0526 48.8 66.0908C48.8522 66.129 48.8965 66.1776 48.9304 66.2338C48.9643 66.29 48.9872 66.3527 48.9976 66.4182Z" fill="#263238"/>
<path d="M48.9944 65.7098C48.9377 65.8178 48.5294 65.4327 47.9929 65.5173C47.4564 65.6018 47.0838 66.0854 47.0212 65.9868C46.9587 65.8882 47.0391 65.7473 47.2001 65.5173C47.4173 65.2249 47.6873 65.0475 47.972 65.0101C48.2525 64.9663 48.5345 65.0651 48.7768 65.2919C48.9526 65.4797 49.0212 65.6769 48.9944 65.7098Z" fill="#263238"/>
<path d="M50.6755 68.9977C50.9505 68.8948 51.2387 68.8231 51.5334 68.7841C51.667 68.7574 51.7946 68.7227 51.8094 68.6372C51.8071 68.5088 51.7616 68.3841 51.6788 68.2794L51.1742 67.3769C50.4706 66.0872 49.9452 65.0244 50.0046 65.0004C50.0639 64.9764 50.6814 65.9964 51.3849 67.2861L51.8718 68.1967C51.9744 68.3378 52.0176 68.5073 51.9935 68.6746C51.9786 68.7195 51.9523 68.7607 51.9168 68.795C51.8813 68.8292 51.8374 68.8557 51.7887 68.8722C51.7149 68.897 51.6382 68.914 51.5601 68.9229C51.2702 68.983 50.9727 69.0081 50.6755 68.9977Z" fill="#263238"/>
<path d="M51.6258 70.6465C50.5134 70.6924 49.5115 70.531 49.5015 70.496C49.4915 70.461 50.4735 70.567 51.586 70.5211L52.5429 70.399C52.4531 70.5897 51.9034 70.6332 51.6258 70.6465Z" fill="#263238"/>
<path d="M45.9403 67.7632C45.9403 67.7632 47.2873 65.0691 46.9495 63.0629C46.9495 63.0629 53.1148 60.141 53.7782 66.526C53.7782 66.526 54.0834 60.8084 48.6058 60.9793C43.1282 61.1502 43.5881 69.155 46.5426 71.385C46.5426 71.385 45.1101 69.452 45.9403 67.7632Z" fill="#263238"/>
<path d="M46.4971 68.406C46.4446 68.0399 46.2497 67.7093 45.9548 67.486C45.6599 67.2628 45.2888 67.1649 44.9222 67.2137C43.9455 67.3765 43.5833 69.4275 46.0657 69.7775C46.4198 69.8304 46.5988 69.4763 46.4971 68.406Z" fill="#FAAF88"/>
<path d="M33.7285 98.9031H49.3921H49.5548C50.6237 98.9031 51.6489 99.3275 52.4051 100.083C53.1613 100.838 53.5867 101.863 53.5877 102.932V146.891H29.9398V102.916C29.9271 101.886 30.3153 100.892 31.0223 100.143C31.7293 99.3941 32.6997 98.9495 33.7285 98.9031Z" fill="#3C725A"/>
<path opacity="0.5" d="M33.7285 98.9031H49.3921H49.5548C50.6237 98.9031 51.6489 99.3275 52.4051 100.083C53.1613 100.838 53.5867 101.863 53.5877 102.932V146.891H29.9398V102.916C29.9271 101.886 30.3153 100.892 31.0223 100.143C31.7293 99.3941 32.6997 98.9495 33.7285 98.9031Z" fill="white"/>
<path opacity="0.6" d="M49.5464 98.9031C50.6153 98.9031 51.6405 99.3275 52.3967 100.083C53.1529 100.838 53.5782 101.863 53.5793 102.932V146.891H45.5176V102.916C45.5219 101.85 45.9482 100.829 46.7033 100.077C47.4584 99.3254 48.4807 98.9031 49.5464 98.9031Z" fill="white"/>
<path d="M111.714 98.8624L113.342 101.324C113.342 101.324 117.354 103.172 117.562 103.652C117.769 104.132 118.4 105.74 117.562 105.821C116.723 105.903 112.239 103.896 111.73 103.787C111.221 103.677 111.73 102.781 111.73 102.781L109.622 99.8635L111.714 98.8624Z" fill="#FAAF88"/>
<path d="M104.987 77.0171C107.429 79.6704 108.076 90.4221 109.122 92.2534C110.168 94.0847 113.309 100.368 113.309 100.368L110.644 101.357C110.644 101.357 106.831 96.1927 105.077 92.8923C103.323 89.5919 102.883 84.2649 102.195 82.8569C101.508 81.4488 104.987 77.0171 104.987 77.0171Z" fill="#3C725A"/>
<path d="M111.64 145.735L114.737 146.061L116.01 139.379L112.917 139.049L111.64 145.735Z" fill="#FAAF88"/>
<path d="M96.9609 146.337L99.9887 146.219L100.689 139.228L97.6568 139.346L96.9609 146.337Z" fill="#FAAF88"/>
<path d="M115.295 143.44H111.612C111.552 143.441 111.494 143.462 111.448 143.5C111.402 143.537 111.369 143.589 111.355 143.648L110.757 146.35C110.745 146.407 110.744 146.467 110.754 146.524C110.765 146.582 110.787 146.637 110.819 146.687C110.852 146.736 110.893 146.778 110.942 146.811C110.991 146.844 111.045 146.867 111.103 146.879C111.136 146.883 111.168 146.883 111.201 146.879C112.393 146.879 113.26 146.789 114.758 146.789C115.677 146.789 118.457 146.883 119.73 146.883C121.004 146.883 121.171 145.625 120.65 145.511C118.31 145.003 116.552 144.29 115.803 143.627C115.665 143.5 115.482 143.433 115.295 143.44Z" fill="#263238"/>
<path d="M115.507 143.859C115.491 143.857 115.477 143.85 115.467 143.839C115.457 143.828 115.451 143.813 115.45 143.798C115.448 143.784 115.451 143.77 115.457 143.758C115.464 143.746 115.474 143.735 115.486 143.729C115.592 143.66 116.573 143.058 116.907 143.232C116.944 143.25 116.976 143.279 116.999 143.314C117.021 143.349 117.033 143.39 117.033 143.432C117.045 143.504 117.037 143.578 117.01 143.646C116.984 143.714 116.94 143.773 116.882 143.819C116.712 143.935 116.506 143.99 116.3 143.973C116.032 143.966 115.766 143.928 115.507 143.859ZM115.714 143.762C116.068 143.879 116.452 143.86 116.793 143.709C116.829 143.676 116.856 143.636 116.873 143.59C116.89 143.545 116.896 143.496 116.89 143.448C116.89 143.391 116.862 143.363 116.841 143.363C116.814 143.348 116.783 143.341 116.752 143.342C116.387 143.416 116.039 143.559 115.726 143.762H115.714Z" fill="#407BFF"/>
<path d="M115.486 143.875C115.474 143.869 115.465 143.86 115.458 143.848C115.452 143.837 115.449 143.824 115.449 143.81C115.449 143.77 115.527 142.895 115.877 142.589C115.918 142.553 115.967 142.527 116.019 142.511C116.072 142.496 116.128 142.492 116.182 142.5C116.236 142.499 116.289 142.517 116.332 142.551C116.374 142.586 116.403 142.634 116.414 142.687C116.475 143.009 115.873 143.676 115.559 143.843H115.523C115.519 143.851 115.514 143.858 115.508 143.863C115.502 143.869 115.494 143.873 115.486 143.875ZM115.97 142.695C115.758 142.968 115.633 143.298 115.612 143.643C115.925 143.411 116.312 142.903 116.271 142.707C116.271 142.687 116.271 142.634 116.17 142.634H116.133C116.073 142.635 116.016 142.657 115.97 142.695Z" fill="#407BFF"/>
<path d="M100.372 143.346H96.6889C96.6288 143.349 96.5711 143.37 96.5248 143.409C96.4784 143.447 96.446 143.499 96.4326 143.558L95.8343 146.256C95.8218 146.314 95.8209 146.373 95.8316 146.431C95.8423 146.489 95.8643 146.544 95.8965 146.593C95.9287 146.642 95.9704 146.685 96.0191 146.718C96.0678 146.751 96.1226 146.774 96.1802 146.785H96.2779C97.4703 146.765 98.3371 146.692 99.8347 146.692C100.754 146.692 103.534 146.785 104.808 146.785C106.081 146.785 106.248 145.532 105.727 145.414C103.387 144.905 101.629 144.193 100.881 143.53C100.741 143.406 100.559 143.34 100.372 143.346Z" fill="#263238"/>
<path d="M100.583 143.77C100.568 143.766 100.555 143.759 100.545 143.748C100.534 143.737 100.528 143.723 100.526 143.709C100.524 143.694 100.527 143.68 100.534 143.667C100.54 143.654 100.55 143.643 100.562 143.635C100.668 143.566 101.649 142.968 101.983 143.139C102.02 143.157 102.052 143.185 102.074 143.221C102.096 143.256 102.108 143.297 102.109 143.338C102.121 143.41 102.113 143.484 102.086 143.552C102.06 143.62 102.016 143.68 101.958 143.725C101.788 143.842 101.582 143.896 101.376 143.879C101.109 143.872 100.842 143.835 100.583 143.77ZM100.79 143.668C101.143 143.787 101.529 143.768 101.869 143.615C101.905 143.583 101.932 143.542 101.949 143.497C101.966 143.451 101.972 143.403 101.966 143.355C101.966 143.298 101.938 143.269 101.918 143.269C101.888 143.261 101.857 143.261 101.828 143.269C101.459 143.333 101.107 143.469 100.79 143.668Z" fill="#407BFF"/>
<path d="M100.563 143.782C100.551 143.776 100.542 143.766 100.535 143.755C100.529 143.743 100.526 143.73 100.526 143.717C100.526 143.676 100.604 142.805 100.933 142.52C100.975 142.484 101.023 142.456 101.076 142.44C101.128 142.424 101.184 142.419 101.239 142.427C101.293 142.426 101.346 142.444 101.389 142.478C101.431 142.512 101.46 142.56 101.471 142.614C101.532 142.935 100.929 143.603 100.616 143.774H100.579C100.575 143.778 100.569 143.78 100.563 143.782ZM101.047 142.602C100.835 142.876 100.71 143.208 100.689 143.554C101.003 143.318 101.389 142.813 101.349 142.614C101.349 142.614 101.349 142.541 101.247 142.541H101.21C101.151 142.542 101.093 142.563 101.047 142.602Z" fill="#407BFF"/>
<path opacity="0.2" d="M112.918 139.049L116.011 139.379L115.352 142.826L112.259 142.5L112.918 139.049Z" fill="#49362B"/>
<path opacity="0.2" d="M97.6571 139.35L100.689 139.232L100.327 142.838L97.2949 142.956L97.6571 139.35Z" fill="#49362B"/>
<path d="M80.4232 94.4022C80.4232 94.4022 73.505 115.519 88.4402 115.519C103.375 115.519 104.572 109.695 103.31 102.842L97.2059 102.289C97.2059 102.289 96.392 97.8572 96.978 94.3208L80.4232 94.4022Z" fill="#263238"/>
<path d="M116.267 142.321L111.156 141.584C111.156 141.584 115.75 120.423 114.134 118.083C112.771 116.129 104.819 116.207 95.6995 115.751L90.34 115.482C78.4529 114.86 103.305 102.798 103.305 102.798C103.305 102.798 119.225 103.465 123.376 108.943C127.194 113.96 116.267 142.321 116.267 142.321Z" fill="#263238"/>
<path opacity="0.2" d="M111.102 141.661L111.155 141.584C111.155 141.584 115.75 120.423 114.134 118.083C112.771 116.129 104.819 116.207 95.6992 115.751L94.6289 112.625L101.437 104.702C101.437 104.702 112.539 105.194 115.449 111.018C118.358 116.841 111.102 141.661 111.102 141.661Z" fill="#49362B"/>
<path d="M109.214 108.943C106.887 105.874 100.868 104.315 96.025 103.538L89.0254 115.515C96.3505 115.816 99.4515 116.955 99.6061 117.635C100.396 120.891 95.8093 141.918 95.8093 141.918H101.136C101.136 141.918 113.369 114.42 109.214 108.943Z" fill="#263238"/>
<path d="M88.3054 75.0964C88.3054 75.0964 99.114 71.1123 104.681 77.005C104.681 77.005 97.763 94.8214 97.2217 97.5683L78.7949 96.8439C78.7949 96.8439 83.1249 84.1348 88.3054 75.0964Z" fill="#3C725A"/>
<path opacity="0.6" d="M104.681 77.005C104.681 77.005 102.382 82.9262 100.331 88.4648C99.285 91.2931 98.2961 94.0238 97.7223 95.8184C97.47 96.6079 97.2909 97.2143 97.2217 97.5683L78.7949 96.8439C78.7949 96.8439 79.5396 94.6627 80.7768 91.464C81.2285 90.3001 81.7453 89.002 82.3151 87.6224C84.0544 83.3288 86.0549 79.1456 88.3054 75.0964C88.3054 75.0964 99.114 71.1123 104.681 77.005Z" fill="white"/>
<path opacity="0.6" d="M100.33 88.4648C99.2846 91.2931 98.2957 94.0238 97.7219 95.8184L96.383 92.5872L91.2554 95.5987L89.0294 91.7855L82.1722 95.0411L80.7764 91.464C81.2281 90.3001 81.7449 89.002 82.3146 87.6224L86.3598 85.6731L89.0294 90.2269L94.9709 86.8044L96.501 91.4111L100.33 88.4648Z" fill="white"/>
<path d="M99.9651 77.3347C96.4856 79.931 94.1416 74.3354 94.1416 74.3354C94.8199 74.1887 95.469 73.9302 96.0624 73.5704C96.5833 73.2082 97.2344 71.8408 97.9507 69.5009H102.582C101.581 70.9577 100.14 73.3913 99.8226 75.4098C99.6926 76.0523 99.7419 76.7183 99.9651 77.3347Z" fill="#FAAF88"/>
<path d="M94.6296 73.8267C94.6296 73.8267 96.119 76.4515 98.3654 77.7415C98.3654 77.7415 99.8467 76.0771 100.066 74.3679C100.066 74.3679 101.694 77.0497 100.258 81.5425L98.3654 78.5554L96.1923 80.9117C96.1923 80.9117 90.7432 76.0039 94.6296 73.8267Z" fill="#3C725A"/>
<path d="M96.4734 99.6885L98.0809 102.13C98.0809 102.13 102.097 103.982 102.301 104.462C102.504 104.942 103.143 106.55 102.301 106.631C101.459 106.713 96.9821 104.706 96.4734 104.596C95.9647 104.487 96.4734 103.591 96.4734 103.591L94.3613 100.657L96.4734 99.6885Z" fill="#FAAF88"/>
<path d="M88.6119 75.1086C92.1849 74.5918 92.832 91.2484 93.8819 93.0756C94.9318 94.9028 98.0654 101.215 98.0654 101.215L95.3998 102.171C95.3998 102.171 91.0902 96.8195 89.3362 93.5191C87.5823 90.2188 85.7591 84.1064 85.6737 80.7938C85.6167 79.1863 86.4347 75.4261 88.6119 75.1086Z" fill="#3C725A"/>
<path opacity="0.2" d="M102.585 69.4602C101.584 70.9171 100.143 73.3507 99.826 75.3692C99.1276 74.5662 98.6009 73.6288 98.2783 72.6147C97.9557 71.6007 97.8439 70.5313 97.9499 69.4724L102.585 69.4602Z" fill="#49362B"/>
<path d="M106.195 62.0536C106.195 62.0536 107.664 66.2982 105.658 68.4062C103.651 70.5142 102.146 62.3833 102.146 62.3833L106.195 62.0536Z" fill="#263238"/>
<path d="M99.5613 73.1226C100.18 73.7536 100.988 74.1636 101.863 74.2894C102.737 74.4151 103.629 74.2497 104.4 73.8185C105.408 73.2829 106.175 72.3837 106.545 71.3036C106.593 71.153 106.638 71.0024 106.675 70.8437C107.326 67.9625 106.825 63.2256 103.68 61.9966C103.147 61.7838 102.577 61.6782 102.004 61.6857C101.43 61.6933 100.864 61.814 100.337 62.0408C99.8098 62.2676 99.3328 62.5961 98.933 63.0075C98.5331 63.4189 98.2184 63.9051 98.0067 64.4383C97.7483 65.075 97.6464 65.7644 97.7097 66.4486C97.9375 69.631 97.9213 71.5152 99.5613 73.1226Z" fill="#FAAF88"/>
<path d="M97.5921 70.3718L98.3369 70.3474C98.1822 69.4684 98.2107 68.7196 98.4305 68.6301C98.8578 68.4795 98.9147 68.9923 98.9147 68.9923C99.7775 68.2068 100.335 66.3308 99.81 65.175C99.7013 64.9348 99.687 64.6624 99.77 64.4121C99.8529 64.1617 100.027 63.9518 100.258 63.824L100.001 62.4322C100.001 62.4322 97.2218 61.834 96.4079 63.0914C95.594 64.3489 96.1515 66.2779 96.9736 68.8295C97.1436 69.3574 97.3503 69.8727 97.5921 70.3718Z" fill="#263238"/>
<path d="M96.3507 69.0817C96.5303 69.4376 96.7784 69.7546 97.0808 70.0143C97.3832 70.2741 97.7339 70.4716 98.1128 70.5955C99.1261 70.9211 99.6714 70.0217 99.4273 69.041C99.1994 68.1742 98.4058 66.9289 97.3681 67.0388C96.3304 67.1487 95.9112 68.1945 96.3507 69.0817Z" fill="#FAAF88"/>
<path d="M97.3442 62.9204C97.3442 62.9204 96.6768 61.2112 98.6627 59.8967C99.6406 59.2649 100.772 58.9114 101.936 58.8741C103.099 58.8369 104.251 59.1172 105.268 59.6851C107.168 60.8165 107.905 63.3029 107.905 63.3029C107.688 63.196 107.448 63.1456 107.207 63.1562C106.966 63.1669 106.731 63.2384 106.525 63.364L106.794 64.2267C106.316 63.8437 105.732 63.619 105.121 63.5837L105.764 64.3976C103.979 63.8816 102.116 63.6873 100.262 63.8238L97.3442 62.9204Z" fill="#263238"/>
<path d="M100.046 61.3871C100.728 61.0505 101.396 60.8164 101.943 60.6248C102.089 60.5739 102.226 60.5259 102.352 60.4799C102.65 60.371 102.894 60.2711 103.047 60.1654C103.124 60.1125 103.184 60.0545 103.214 59.9881C103.246 59.9187 103.244 59.8456 103.207 59.7714C103.172 59.6997 103.106 59.6305 103.021 59.5658C102.934 59.5007 102.824 59.438 102.695 59.3804C102.437 59.2652 102.099 59.1688 101.716 59.1152C100.95 59.0079 99.9943 59.0708 99.1166 59.5039C98.2429 59.935 97.5572 60.5396 97.1201 61.1C96.9016 61.3801 96.7442 61.6505 96.6568 61.8843C96.5705 62.1151 96.5482 62.3216 96.6189 62.4648C96.6936 62.6161 96.8532 62.6634 97.0515 62.6498C97.2504 62.6362 97.5061 62.561 97.8034 62.4456C98.3022 62.2519 98.9319 61.9395 99.6318 61.5922C99.7673 61.5249 99.9055 61.4564 100.046 61.3871Z" fill="#FDFBFB" stroke="#49362B" stroke-width="0.1"/>
<path d="M132.272 119.609L128.927 127.984L126.933 132.973H124.516L126.107 127.084L128.703 117.472L132.272 119.609Z" fill="#FAAF88"/>
<path opacity="0.2" d="M132.273 119.609L128.928 127.984L126.107 127.084L128.704 117.472L132.273 119.609Z" fill="#49362B"/>
<path d="M142.934 127.072L144.192 136.001L144.941 141.32L142.841 142.524L141.298 136.623L138.775 126.991L142.934 127.072Z" fill="#FAAF88"/>
<path opacity="0.2" d="M142.934 127.072L144.192 136.001L141.298 136.623L138.775 126.991L142.934 127.072Z" fill="#49362B"/>
<path d="M138.914 80.1547L127.649 79.9227L137.453 91.0773L147.993 90.3773L138.914 80.1547Z" fill="#3C725A"/>
<path opacity="0.3" d="M138.914 80.1547L127.649 79.9227L137.453 91.0773L147.993 90.3773L138.914 80.1547Z" fill="white"/>
<path d="M138.661 81.3716L129.969 81.1966L137.538 89.8036L145.673 89.2624L138.661 81.3716Z" fill="white"/>
<path d="M139.866 74.3847L136.95 82.7807L137.296 82.9008L140.212 74.5048L139.866 74.3847Z" fill="#263238"/>
<path d="M136.887 83.5487L137.294 82.8936C137.253 82.8432 137.199 82.8051 137.138 82.7836C137.077 82.762 137.011 82.7578 136.948 82.7715L136.887 83.5487Z" fill="#407BFF"/>
<path d="M136.973 83.39C136.973 83.3453 136.928 83.3371 136.891 83.3615L136.871 83.5487L136.973 83.39Z" fill="#263238"/>
<path d="M144.62 84.1267L142.28 81.4693C142.206 81.1773 142.1 80.8946 141.962 80.6269C141.722 80.1426 139.52 78.7753 138.731 78.4945C137.942 78.2137 135.642 80.3461 135.846 80.6676C136.049 80.9891 138.983 82.8936 139.667 82.8448L140.351 82.8L143.008 86.1004L144.62 84.1267Z" fill="#FAAF88"/>
<path d="M157.995 68.638C157.545 68.7955 157.076 68.89 156.6 68.9188C155.631 68.9188 154.866 68.8008 154.264 68.3816C152.904 67.4375 152.412 65.3499 152.375 62.7657C152.318 59.3961 153.283 57.5649 156.779 57.2841C162.578 56.8201 163.815 66.9492 157.995 68.638Z" fill="#FAAF88"/>
<path opacity="0.2" d="M159.489 67.0794C158.691 67.9205 157.699 68.5523 156.6 68.9188C155.631 68.9188 154.866 68.8048 154.264 68.3857C156.014 67.055 159.489 67.0794 159.489 67.0794Z" fill="#49362B"/>
<path d="M154.552 58.8891C154.552 58.8891 152.82 62.2656 155.774 64.1776C155.774 64.1776 157.795 67.3914 161.053 66.9602C164.311 66.529 166.244 61.6716 164.089 57.4205C162.033 53.3849 155.102 55.6142 155.102 55.6142C152.136 54.3287 150.93 58.0185 153.125 59.1698C153.563 58.9309 154.06 58.8331 154.552 58.8891Z" fill="#2E353A"/>
<path d="M154.451 63.3273C154.441 63.1244 154.472 62.9215 154.542 62.731C154.613 62.5405 154.722 62.3665 154.862 62.2194C155.002 62.0724 155.171 61.9555 155.358 61.8759C155.544 61.7963 155.746 61.7557 155.949 61.7565C157.052 61.8094 157.817 64.0965 155.176 64.833C154.793 64.9388 154.537 64.5563 154.451 63.3273Z" fill="#FAAF88"/>
<path d="M152.351 57.516C152.351 57.516 152.01 59.1439 154.435 61.7565C156.012 63.3865 157.903 64.6795 159.994 65.5574L159.473 55.1476L153.755 55.4976L152.351 57.516Z" fill="#2E353A"/>
<path d="M157.695 74.3435C160.242 74.6366 163.555 72.8175 163.555 72.8175C161.15 71.2751 160.783 67.0795 160.783 67.0795C158.451 66.176 156.653 68.3003 156.653 68.3003C156.829 68.8014 156.965 69.3158 157.06 69.8386C157.467 72.0809 156.372 72.2803 156.372 72.2803C155.888 73.5744 157.047 74.2703 157.695 74.3435Z" fill="#FAAF88"/>
<path d="M155.709 71.7105L156.873 69.9607C158.928 68.3817 161.793 68.9392 161.793 68.9392L163.396 71.7512C163.396 71.7512 158.049 71.971 155.709 71.7105Z" fill="#3C725A"/>
<path d="M154.943 87.4433C151.83 86.8532 148.949 85.9701 148.949 85.9701L148.135 87.9397C150.35 88.9775 152.626 89.8786 154.951 90.6378L154.943 87.4433Z" fill="#EEC1BB"/>
<path d="M168.67 78.0997C168.646 75.0435 167.706 74.2947 167.706 74.2947L165.988 78.6653L166.489 90.642C166.489 90.642 168.69 81.16 168.67 78.0997Z" fill="#3C725A"/>
<path d="M167.002 90.5523C167.645 90.7192 166.395 80.2442 167.722 74.2743C167.722 74.2743 166.717 72.5366 162.794 71.4256C158.236 70.1396 152.596 72.3453 150.874 72.9964C150.874 72.9964 149.698 82.6575 153.426 91.4965C153.41 91.5249 158.374 91.411 167.002 90.5523Z" fill="#3C725A"/>
<path opacity="0.2" d="M167.002 90.5523C167.466 90.6297 166.513 80.1588 167.722 74.2743C167.722 74.2743 166.717 72.5366 162.794 71.4256C158.236 70.1396 152.596 72.3453 150.874 72.9964C150.874 72.9964 149.698 82.6575 153.426 91.4965C153.41 91.5249 158.374 91.411 167.002 90.5523Z" fill="#49362B"/>
<path d="M149.45 86.1206C149.45 86.1206 146.194 84.7207 145.042 84.4237C143.891 84.1266 143.822 87.7362 144.314 88.2693C144.806 88.8025 149.197 88.7862 149.507 88.2693C149.816 87.7525 149.45 86.1206 149.45 86.1206Z" fill="#EEC1BB"/>
<path d="M119.954 136.501C120.367 136.325 120.808 136.221 121.256 136.192C121.256 136.192 122.819 135.338 124.369 132.013H126.111C126.398 132.011 126.678 132.095 126.916 132.255C127.154 132.414 127.339 132.642 127.446 132.908C127.475 132.979 127.491 133.055 127.495 133.132C127.478 133.524 127.434 133.914 127.364 134.3C127.106 135.591 126.765 136.865 126.343 138.113L126.05 138.044L126.587 135.622C126.766 134.808 125.838 135.594 125.407 136.436C124.976 137.279 124.316 138.101 122.396 137.69C120.153 137.177 119.25 136.876 119.954 136.501Z" fill="#2E353A"/>
<path d="M127.495 132.936C127.825 132.151 128.244 130.747 128.244 130.747L124.516 130.263C124.516 130.263 124.516 131.968 123.824 133.087C125.774 133.087 127.495 132.936 127.495 132.936Z" fill="#2E353A"/>
<path d="M150.858 73.025C154.732 74.6975 153.609 89.8484 149.759 90.8535C145.909 91.8587 141.018 84.4074 141.018 84.4074L143.313 82.1529C143.313 82.1529 146.975 85.5713 147.74 85.498C148.506 85.4248 149.002 78.1281 149.214 76.5777C149.637 73.4604 150.858 73.025 150.858 73.025Z" fill="#3C725A"/>
<path d="M167.001 90.5524C167.001 90.5524 154.386 88.8717 153.425 91.525C153.242 92.0418 153.018 95.0818 152.892 95.9445C152.766 96.8073 152.648 97.438 152.648 97.438C152.241 97.3444 141.229 94.3004 136.236 97.438C132.618 99.717 128.504 115.897 126.221 125.689L129.696 126.91C133.631 118.396 139.732 105.671 141.091 105.618C143.146 105.536 164.088 114.497 169.337 109.529C174.587 104.56 167.001 90.5524 167.001 90.5524Z" fill="#3C725A"/>
<g opacity="0.6">
<path opacity="0.6" d="M167.001 90.5524C167.001 90.5524 154.386 88.8717 153.425 91.525C153.242 92.0418 153.018 95.0818 152.892 95.9445C152.766 96.8073 152.648 97.438 152.648 97.438C152.241 97.3444 141.229 94.3004 136.236 97.438C132.618 99.717 128.504 115.897 126.221 125.689L129.696 126.91C133.631 118.396 139.732 105.671 141.091 105.618C143.146 105.536 164.088 114.497 169.337 109.529C174.587 104.56 167.001 90.5524 167.001 90.5524Z" fill="white"/>
</g>
<path d="M138.751 146.329C139.104 146.058 139.503 145.851 139.928 145.719C139.928 145.719 141.201 144.522 141.787 140.937L143.468 140.53C143.75 140.461 144.045 140.476 144.319 140.573C144.592 140.67 144.831 140.844 145.006 141.076C145.055 141.136 145.092 141.205 145.116 141.279C145.206 141.662 145.27 142.051 145.307 142.443C145.415 143.749 145.435 145.061 145.369 146.37H145.063L144.921 143.904C144.868 143.066 144.188 144.054 144.001 144.958C143.814 145.861 143.403 146.826 141.429 146.887C139.13 146.923 138.174 146.858 138.751 146.329Z" fill="#2E353A"/>
<path d="M145.067 141.088C145.169 140.249 145.189 138.792 145.189 138.792L141.449 139.199C141.449 139.199 141.917 140.852 141.559 142.097C143.439 141.633 145.067 141.088 145.067 141.088Z" fill="#2E353A"/>
<path d="M144.29 134.068C143.167 123.768 141.73 113.212 141.64 112.499C142.027 112.658 154.984 110.819 160.767 110.554C160.767 110.554 151.212 108.951 145.987 106.607C144.628 105.996 140.823 104.035 140.823 104.035C140.823 104.035 133.111 104.417 133.005 108.344C132.94 110.953 128 116.5 126.5 126.5L144.29 134.068Z" fill="#3C725A"/>
<g opacity="0.5">
<path opacity="0.5" d="M144.29 134.068C143.167 123.768 141.73 113.212 141.64 112.499C142.027 112.658 154.984 110.819 160.767 110.554C160.767 110.554 151.212 108.951 145.987 106.607C144.627 105.996 140.822 104.035 140.822 104.035C140.822 104.035 133.111 104.417 133.005 108.344C132.94 110.953 129 115 126 125.5C126 125.5 130.937 128.164 134.5 130C138.435 132.028 144.29 134.068 144.29 134.068Z" fill="white"/>
</g>
<path d="M154.032 113.663L154.167 119.45L154.777 146.517H156.787L157.394 119.45L157.528 113.663H154.032Z" fill="#263238"/>
<path opacity="0.1" d="M154.032 113.663L154.167 119.45L154.777 146.517H156.787L157.394 119.45L157.528 113.663H154.032Z" fill="white"/>
<path opacity="0.2" d="M154.032 113.663L154.167 119.609H157.394L157.528 113.663H154.032Z" fill="#49362B"/>
<path d="M160.299 113.663L160.433 119.45L161.044 146.517H163.054L163.66 119.45L163.795 113.663H160.299Z" fill="#263238"/>
<path opacity="0.2" d="M160.299 113.663L160.433 119.45L161.044 146.517H163.054L163.66 119.45L163.795 113.663H160.299Z" fill="white"/>
<path opacity="0.2" d="M160.299 113.663L160.433 119.609H163.66L163.795 113.663H160.299Z" fill="#49362B"/>
<path d="M143.113 146.423L144.969 114.07H148.005L145.408 146.423H143.113Z" fill="#263238"/>
<path opacity="0.2" d="M145.412 146.423H143.117L144.802 116.894L144.969 114.034H148.005L147.773 116.894L145.412 146.423Z" fill="white"/>
<path opacity="0.2" d="M148.005 114.034L147.773 117.008H144.803L144.97 114.034H148.005Z" fill="#49362B"/>
<path d="M173.053 146.423L170.452 114.07H173.488L175.348 146.423H173.053Z" fill="#263238"/>
<path opacity="0.1" d="M173.049 146.423L170.689 116.894L170.457 114.034H173.493L173.66 116.894L175.345 146.423H173.049Z" fill="white"/>
<path opacity="0.2" d="M170.457 114.034L170.689 117.008H173.66L173.493 114.034H170.457Z" fill="#49362B"/>
<path d="M175.116 115.161H143.341V112.849C143.341 112.31 143.556 111.792 143.937 111.41C144.319 111.029 144.836 110.815 145.376 110.815H173.081C173.621 110.815 174.139 111.029 174.52 111.41C174.902 111.792 175.116 112.31 175.116 112.849V115.161Z" fill="#3C725A"/>
<path d="M142.971 115.161H175.491C175.942 115.161 176.309 114.795 176.309 114.343V113.806C176.309 113.354 175.942 112.988 175.491 112.988H142.971C142.519 112.988 142.153 113.354 142.153 113.806V114.343C142.153 114.795 142.519 115.161 142.971 115.161Z" fill="#263238"/>
<path opacity="0.4" d="M142.971 115.161H175.491C175.942 115.161 176.309 114.795 176.309 114.343V113.806C176.309 113.354 175.942 112.988 175.491 112.988H142.971C142.519 112.988 142.153 113.354 142.153 113.806V114.343C142.153 114.795 142.519 115.161 142.971 115.161Z" fill="white"/>
<path d="M157.528 88.7292L158.603 80.0286C158.603 79.5213 158.804 79.0348 159.163 78.6761C159.522 78.3174 160.008 78.1159 160.515 78.1159H163.075L162.001 90.6419H159.441C159.19 90.6424 158.941 90.5933 158.708 90.4974C158.476 90.4015 158.265 90.2606 158.087 90.0829C157.91 89.9052 157.769 89.6941 157.673 89.4618C157.577 89.2295 157.528 88.9805 157.528 88.7292Z" fill="#3C725A"/>
<path d="M159.897 113.085L164.459 79.7722L162.135 79.4548L157.528 113.093L159.897 113.085Z" fill="#263238"/>
<path d="M174.444 113.093L179.01 79.7722L176.683 79.4548L172.08 113.093H174.444Z" fill="#263238"/>
<g opacity="0.2">
<path opacity="0.2" d="M159.897 113.085L164.459 79.7722L162.135 79.4548L157.528 113.093L159.897 113.085Z" fill="white"/>
</g>
<g opacity="0.2">
<path opacity="0.2" d="M174.444 113.093L179.01 79.7722L176.683 79.4548L172.08 113.093H174.444Z" fill="white"/>
</g>
<path d="M158.879 90.8536H179.768L181.436 77.827H160.547L158.879 90.8536Z" fill="#263238"/>
<path opacity="0.6" d="M158.879 90.8536H179.768L181.436 77.827H160.547L158.879 90.8536Z" fill="white"/>
<path d="M152.5 57.5C151.9 59.537 152.96 62.0873 156 64C156 64 158.146 67.4314 161.5 67C164.853 66.5687 166.84 60.5 164 56.5C160.45 51.5001 153.595 53.7821 152.5 57.5Z" fill="#86383C"/>
<path d="M105.817 67.7461C105.806 67.8817 105.744 68.0083 105.645 68.0984C105.545 68.1885 105.416 68.2349 105.286 68.2277C105.221 68.2288 105.158 68.2163 105.099 68.1911C105.04 68.1659 104.986 68.1285 104.942 68.0811C104.898 68.0337 104.863 67.9774 104.84 67.9154C104.818 67.8535 104.807 67.7872 104.81 67.7207C104.821 67.5855 104.882 67.4593 104.981 67.3691C105.08 67.279 105.208 67.2321 105.338 67.2385C105.403 67.2379 105.466 67.2507 105.525 67.276C105.584 67.3014 105.637 67.3388 105.682 67.3861C105.727 67.4334 105.761 67.4896 105.785 67.5514C105.808 67.6133 105.819 67.6795 105.817 67.7461Z" fill="#263238"/>
<path d="M103.561 71.6849C103.556 71.8218 103.477 71.945 103.339 72.0279C103.201 72.1108 103.016 72.1467 102.824 72.1279C102.73 72.1234 102.636 72.1051 102.547 72.0744C102.458 72.0436 102.376 72.0009 102.307 71.9488C102.238 71.8968 102.182 71.8365 102.143 71.7715C102.105 71.7066 102.084 71.6383 102.082 71.5709C102.086 71.4344 102.165 71.3115 102.302 71.2286C102.439 71.1456 102.623 71.1092 102.815 71.127C102.909 71.1321 103.003 71.1506 103.092 71.1815C103.181 71.2125 103.262 71.2552 103.332 71.3072C103.401 71.3591 103.457 71.4193 103.497 71.4842C103.536 71.5491 103.558 71.6173 103.561 71.6849Z" fill="#263238"/>
<path d="M106.136 66.0662C106.059 66.1666 105.732 65.7132 105.187 65.6922C104.642 65.6713 104.203 66.0862 104.145 65.975C104.087 65.8637 104.21 65.7433 104.411 65.5466C104.677 65.301 104.974 65.1762 105.26 65.1896C105.543 65.1998 105.802 65.3488 105.999 65.6151C106.125 65.83 106.145 66.0154 106.136 66.0662Z" fill="#263238"/>
<path d="M101.887 67.0075C101.874 67.1434 101.812 67.2697 101.712 67.36C101.613 67.4503 101.484 67.4977 101.353 67.492C101.225 67.4909 101.103 67.4371 101.014 67.3423C100.925 67.2475 100.876 67.1194 100.879 66.9859C100.89 66.8498 100.953 66.723 101.052 66.6325C101.152 66.542 101.281 66.495 101.412 66.5014C101.476 66.5011 101.539 66.5141 101.597 66.5395C101.656 66.5649 101.709 66.6022 101.753 66.6493C101.797 66.6964 101.832 66.7524 101.855 66.8139C101.878 66.8754 101.889 66.9412 101.887 67.0075Z" fill="#263238"/>
<path d="M102.014 66.3107C101.938 66.4064 101.608 65.9526 101.065 65.9368C100.522 65.921 100.067 66.3276 100.024 66.2192C99.9802 66.1107 100.085 65.9871 100.286 65.7906C100.553 65.5433 100.851 65.4187 101.138 65.4345C101.422 65.4432 101.681 65.5922 101.877 65.8598C102.015 66.0768 102.046 66.2833 102.014 66.3107Z" fill="#263238"/>
<path d="M103.06 69.8522C103.349 69.8017 103.645 69.7843 103.942 69.8004C104.078 69.7988 104.21 69.7882 104.241 69.7069C104.262 69.5803 104.24 69.4493 104.178 69.3312L103.849 68.3511C103.395 66.9538 103.074 65.8124 103.137 65.7997C103.2 65.787 103.619 66.9034 104.073 68.3007L104.383 69.2854C104.458 69.4431 104.469 69.6176 104.415 69.7776C104.392 69.819 104.358 69.8546 104.317 69.8818C104.276 69.9089 104.228 69.9268 104.177 69.9341C104.1 69.9448 104.021 69.9474 103.943 69.9418C103.647 69.9473 103.35 69.9172 103.06 69.8522Z" fill="#263238"/>
</g>
<defs>
<clipPath id="clip0_16_1776">
<rect width="210" height="150" fill="white"/>
</clipPath>
</defs>
</svg>
